<?xml version="1.0" standalone="no"?>
<!DOCTYPE svg PUBLIC "-//W3C//DTD SVG 1.1//EN" "http://www.w3.org/Graphics/SVG/1.1/DTD/svg11.dtd" >
<svg xmlns="http://www.w3.org/2000/svg">
<metadata>Generated by IcoMoon</metadata>
<defs>
<font id="icomoon" horiz-adv-x="1024">
<font-face units-per-em="1024" ascent="960" descent="-64" />
<missing-glyph horiz-adv-x="1024" />
<glyph unicode="&#x20;" horiz-adv-x="512" d="" />
<glyph unicode="&#xe900;" glyph-name="caret_down" d="M320 512l192.022-192.022 191.978 192.022h-384z" />
<glyph unicode="&#xe901;" glyph-name="caret_left" d="M576.026 640l-192.026-192.022 192.026-191.978v384z" />
<glyph unicode="&#xe902;" glyph-name="caret_right" d="M384 640v-384l192.022 192.019-192.022 191.981z" />
<glyph unicode="&#xe903;" glyph-name="caret_up" d="M704 383.978h-384l191.981 192.022 192.019-192.022z" />
<glyph unicode="&#xe904;" glyph-name="changed-currency-bangladeshi" d="M320 670.609c0 18.442 15.76 33.391 35.2 33.391 34.23 0 67.059-12.899 91.264-35.86s37.802-54.101 37.802-86.575v-55.651h152.534c19.44 0 35.2-14.95 35.2-33.392s-15.76-33.392-35.2-33.392h-152.534v-144.694c0-14.762 6.182-28.915 17.184-39.354 11.002-10.435 25.923-16.298 41.485-16.298 15.558 0 30.48 5.862 41.482 16.298 11.002 10.438 17.184 24.592 17.184 39.354v44.522c0 18.442 15.76 33.392 35.2 33.392s35.2-14.95 35.2-33.392v-44.522c0-32.474-13.597-63.613-37.802-86.576-24.205-22.96-57.034-35.859-91.264-35.859s-67.059 12.899-91.264 35.859c-24.205 22.963-37.805 54.102-37.805 86.576v144.694h-58.666c-19.44 0-35.2 14.95-35.2 33.392s15.76 33.392 35.2 33.392h58.666v55.651c0 14.762-6.179 28.915-17.181 39.354-11.005 10.435-25.926 16.298-41.485 16.298-19.44 0-35.2 14.951-35.2 33.393zM32 448c0 265.097 214.903 480 480 480 99.245 0 191.539-30.153 268.106-81.801 16.003 19.438 31.133 40.907 44.016 67.395 71.878-129.594 87.878-225.592 90.374-266.88-31.606 37.827-128.266 121.584-167.971 146.106l-0.547-0.804c-66.653 45.429-147.165 71.985-233.978 71.985-229.75 0-416-186.25-416-416s186.25-416 416-416c205.894 0 376.854 149.581 410.138 346l69.862 69.866c-0.074-265.034-214.947-479.866-480-479.866-265.097 0-480 214.902-480 480z" />
<glyph unicode="&#xe905;" glyph-name="changed-currency-dollar" d="M512 704c19.44 0 35.2-14.95 35.2-33.391v-13.534c45.853-6.337 87.181-25.004 113.363-53.622 12.742-13.93 11.171-35.018-3.51-47.107-14.682-12.086-36.915-10.595-49.658 3.334-11.475 12.541-32.582 24.112-60.195 29.629v-110.31c31.459-4.336 60.41-14.442 83.888-29.286 31.776-20.096 56.912-51.523 56.912-90.755s-25.136-70.659-56.912-90.755c-23.478-14.845-52.429-24.95-83.888-29.286v-13.523c0-18.442-15.76-33.392-35.2-33.392s-35.2 14.95-35.2 33.392v13.533c-45.853 6.336-87.181 25.005-113.363 53.622-12.742 13.93-11.171 35.018 3.51 47.107 14.682 12.086 36.915 10.595 49.658-3.334 11.475-12.541 32.582-24.112 60.195-29.629v110.31c-31.459 4.336-60.41 14.442-83.888 29.286-31.776 20.096-56.912 51.523-56.912 90.755s25.136 70.659 56.912 90.755c23.478 14.845 52.429 24.951 83.888 29.288v13.523c0 18.442 15.76 33.391 35.2 33.391zM476.8 589.296c-17.786-3.552-33.091-9.638-44.838-17.066-19.181-12.128-25.562-25.222-25.562-35.187s6.381-23.059 25.562-35.187c11.747-7.427 27.053-13.514 44.838-17.066v104.506zM547.2 411.21v-104.506c17.786 3.552 33.094 9.638 44.838 17.066 19.181 12.128 25.562 25.222 25.562 35.187s-6.381 23.059-25.562 35.187c-11.744 7.427-27.053 13.514-44.838 17.066zM32 448c0 265.097 214.903 480 480 480 99.245 0 191.539-30.153 268.106-81.801 16.003 19.438 31.133 40.907 44.016 67.395 71.878-129.594 87.878-225.592 90.374-266.88-31.606 37.827-128.266 121.584-167.971 146.106l-0.547-0.804c-66.653 45.429-147.165 71.985-233.978 71.985-229.75 0-416-186.25-416-416s186.25-416 416-416c205.894 0 376.854 149.581 410.138 346l69.862 69.866c-0.074-265.034-214.947-479.866-480-479.866-265.097 0-480 214.902-480 480z" />
<glyph unicode="&#xe906;" glyph-name="changed-currency-euro" d="M395.43 262.858c32-54.858 77.712-86.858 127.997-86.858 50.288 4.573 96 32 128 86.858 9.146 18.285 4.573 45.715-13.712 54.858s-45.715 4.57-54.858-13.715c-18.288-32-41.142-50.288-64-50.288s-45.715 18.288-64 50.288c-9.142 9.142-13.715 18.285-18.285 32h77.712c18.285 0 36.573 18.285 36.573 41.142s-13.715 41.142-36.573 41.142h-96v59.43h96c18.285 0 36.573 18.285 36.573 41.142s-13.715 41.142-36.573 41.142h-77.712c2.285 4.573 5.712 10.285 9.142 16 3.427 5.715 6.858 11.43 9.142 16 18.285 32 41.142 50.285 64 50.285s45.712-18.285 64-50.285c13.712-18.285 36.573-22.858 54.858-13.715 18.285 13.715 22.858 36.573 13.712 54.858-32 54.858-77.712 86.858-128 86.858-50.285 0-95.997-32-127.997-86.858-13.715-22.858-22.861-45.715-32.003-73.142h-22.858c-18.285 0-36.57-18.285-36.57-41.142s13.714-41.142 36.57-41.142h9.146v-59.43h-9.146c-18.285 0-36.57-18.285-36.57-41.142s13.714-41.142 36.57-41.142h22.858c9.142-27.427 18.288-50.285 32.003-73.142zM32 448c0 265.097 214.903 480 480 480 99.245 0 191.539-30.153 268.106-81.801 16.003 19.438 31.133 40.907 44.016 67.395 71.878-129.594 87.878-225.592 90.374-266.88-31.606 37.827-128.266 121.584-167.971 146.106l-0.547-0.804c-66.653 45.429-147.165 71.985-233.978 71.985-229.75 0-416-186.25-416-416s186.25-416 416-416c205.894 0 376.854 149.581 410.138 346l69.862 69.866c-0.074-265.034-214.947-479.866-480-479.866-265.097 0-480 214.902-480 480z" />
<glyph unicode="&#xe907;" glyph-name="changed-currency-pound" d="M455.699 667.179c22.003 23.576 51.85 36.821 82.966 36.821 31.12 0 60.963-13.245 82.97-36.821 22.003-23.576 34.365-55.554 34.365-88.894 0-18.934-14.326-34.285-32-34.285s-32 15.35-32 34.285c0 15.155-5.619 29.69-15.622 40.406-10 10.717-23.565 16.736-37.712 16.736-14.144 0-27.709-6.019-37.712-16.736-10-10.717-15.619-25.251-15.619-40.406v-102.858h53.331c17.674 0 32-15.35 32-34.285s-14.326-34.285-32-34.285h-53.331v-57.142c0-20.051-4.474-39.61-12.822-57.142h151.488c17.674 0 32-15.35 32-34.288 0-18.934-14.326-34.285-32-34.285h-256c-17.674 0-32 15.35-32 34.285 0 18.938 14.326 34.288 32 34.288 14.144 0 27.709 6.019 37.712 16.736s15.622 25.251 15.622 40.406v57.142h-53.334c-17.674 0-32 15.35-32 34.285s14.326 34.285 32 34.285h53.334v102.858c0 33.341 12.362 65.318 34.365 88.894zM32 448c0 265.097 214.903 480 480 480 99.245 0 191.539-30.153 268.106-81.801 16.003 19.438 31.133 40.907 44.016 67.395 71.878-129.594 87.878-225.592 90.374-266.88-31.606 37.827-128.266 121.584-167.971 146.106l-0.547-0.804c-66.653 45.429-147.165 71.985-233.978 71.985-229.75 0-416-186.25-416-416s186.25-416 416-416c205.894 0 376.854 149.581 410.138 346l69.862 69.866c-0.074-265.034-214.947-479.866-480-479.866-265.097 0-480 214.902-480 480z" />
<glyph unicode="&#xe908;" glyph-name="changed-currency-rupee" d="M368 612.429c0 18.934 14.326 34.285 32 34.285h256c17.674 0 32-15.351 32-34.285 0-18.938-14.326-34.288-32-34.288h-85.334c8.019-11.453 14.685-23.965 19.821-37.251 3.917-10.134 6.909-20.624 8.947-31.318h56.566c17.674 0 32-15.35 32-34.285 0-18.938-14.326-34.288-32-34.288h-56.566c-2.038-10.694-5.030-21.181-8.947-31.315-8.042-20.8-19.827-39.699-34.682-55.616-14.858-15.92-32.496-28.547-51.91-37.162-9.626-4.272-19.597-7.517-29.763-9.702l76.496-81.962c12.496-13.389 12.496-35.098 0-48.486s-32.758-13.389-45.254 0l-128 137.142c-9.152 9.808-11.891 24.554-6.938 37.366 4.954 12.81 16.621 21.165 29.565 21.165h42.666c12.608 0 25.091 2.659 36.739 7.827 11.645 5.171 22.23 12.746 31.142 22.298 8.915 9.552 15.987 20.89 20.813 33.37 0.646 1.677 1.251 3.37 1.814 5.075h-133.174c-17.674 0-32 15.35-32 34.288 0 18.934 14.326 34.285 32 34.285h133.174c-0.563 1.706-1.168 3.398-1.814 5.075-4.826 12.48-11.898 23.818-20.813 33.37-8.912 9.552-19.498 17.126-31.142 22.298-11.648 5.168-24.131 7.827-36.739 7.827h-42.666c-17.674 0-32 15.35-32 34.288zM32 448c0 265.097 214.903 480 480 480 99.245 0 191.539-30.153 268.106-81.801 16.003 19.438 31.133 40.907 44.016 67.395 71.878-129.594 87.878-225.592 90.374-266.88-31.606 37.827-128.266 121.584-167.971 146.106l-0.547-0.804c-66.653 45.429-147.165 71.985-233.978 71.985-229.75 0-416-186.25-416-416s186.25-416 416-416c205.894 0 376.854 149.581 410.138 346l69.862 69.866c-0.074-265.034-214.947-479.866-480-479.866-265.097 0-480 214.902-480 480z" />
<glyph unicode="&#xe909;" glyph-name="changed-currency-solperu" d="M474.102 655.536c43.878-6.267 83.427-24.727 108.48-53.031 12.195-13.773 10.691-34.63-3.36-46.582-14.048-11.955-35.325-10.48-47.517 3.293-10.982 12.406-31.181 23.85-57.603 29.302l-67.366-0.010c-17.021-3.514-31.667-9.533-42.909-16.88-18.355-11.994-24.461-24.944-24.461-34.797s6.106-22.803 24.461-34.797c11.242-7.347 25.888-13.366 42.909-16.88l67.366-5.725c30.106-4.288 57.808-14.285 80.275-28.966 30.406-19.872 54.461-50.95 54.461-89.75s-24.054-69.878-54.461-89.75c-22.467-14.682-50.17-24.675-80.275-28.963-14.701-2.096-30.262-1.376-45.434-0.675-7.453 0.346-14.816 0.685-21.933 0.685-43.878 6.269-83.427 24.73-108.482 53.030-12.194 13.773-10.689 34.63 3.361 46.582 14.050 11.955 35.323 10.48 47.518-3.293 10.982-12.406 31.178-23.85 57.603-29.302l67.366 0.010c17.021 3.514 31.667 9.536 42.909 16.88 18.352 11.994 24.458 24.944 24.458 34.797s-6.106 22.803-24.458 34.797c-11.242 7.347-25.888 13.366-42.909 16.88l-67.366 5.725c-30.106 4.291-57.808 14.285-80.275 28.966-30.408 19.872-54.461 50.95-54.461 89.75s24.052 69.878 54.461 89.75c22.467 14.682 50.17 24.676 80.275 28.965 11.766 1.676 31.76 1.010 48.483 0.452 7.21-0.24 13.811-0.46 18.883-0.464zM767.872 635.814c12.352-4.038 19.030-17.13 14.912-29.238l-117.894-346.733c-4.118-12.112-17.469-18.656-29.824-14.621-12.355 4.038-19.030 17.13-14.912 29.238l117.891 346.733c4.118 12.112 17.472 18.656 29.827 14.621zM743.574 250.64c18.602 0 33.683 14.787 33.683 33.024s-15.082 33.021-33.683 33.021c-18.605 0-33.686-14.784-33.686-33.021s15.082-33.024 33.686-33.024zM32 448c0 265.097 214.903 480 480 480 99.245 0 191.539-30.153 268.106-81.801 16.003 19.438 31.133 40.907 44.016 67.395 71.878-129.594 87.878-225.592 90.374-266.88-31.606 37.827-128.266 121.584-167.971 146.106l-0.547-0.804c-66.653 45.429-147.165 71.985-233.978 71.985-229.75 0-416-186.25-416-416s186.25-416 416-416c205.894 0 376.854 149.581 410.138 346l69.862 69.866c-0.074-265.034-214.947-479.866-480-479.866-265.097 0-480 214.902-480 480z" />
<glyph unicode="&#xe90a;" glyph-name="changed-currency-yen" d="M353.101 667.109c16.669 9.742 38.291 4.477 48.291-11.76l102.384-166.21h16.458l102.384 166.21c10.003 16.237 31.622 21.502 48.294 11.76 16.669-9.742 22.074-30.802 12.070-47.038l-80.65-130.931h50.467c19.44 0 35.2-15.35 35.2-34.285s-15.76-34.285-35.2-34.285h-92.707l-12.89-20.925v-47.648h105.597c19.44 0 35.2-15.347 35.2-34.285 0-18.934-15.76-34.285-35.2-34.285h-105.597v-57.142c0-18.934-15.757-34.285-35.197-34.285s-35.2 15.35-35.2 34.285v57.142h-105.597c-19.44 0-35.2 15.35-35.2 34.285 0 18.938 15.76 34.285 35.2 34.285h105.597v47.648l-12.89 20.925h-92.707c-19.44 0-35.2 15.35-35.2 34.285s15.76 34.285 35.2 34.285h50.467l-80.65 130.931c-10.003 16.237-4.598 37.296 12.074 47.038zM32 448c0 265.097 214.903 480 480 480 99.245 0 191.539-30.153 268.106-81.801 16.003 19.438 31.133 40.907 44.016 67.395 71.878-129.594 87.878-225.592 90.374-266.88-31.606 37.827-128.266 121.584-167.971 146.106l-0.547-0.804c-66.653 45.429-147.165 71.985-233.978 71.985-229.75 0-416-186.25-416-416s186.25-416 416-416c205.894 0 376.854 149.581 410.138 346l69.862 69.866c-0.074-265.034-214.947-479.866-480-479.866-265.097 0-480 214.902-480 480z" />
<glyph unicode="&#xe90b;" glyph-name="close_thin" d="M197.658 133.658c3.771-3.77 8.713-5.658 13.654-5.658s9.884 1.888 13.654 5.658l287.034 287.034 287.034-287.037c3.77-3.77 8.717-5.654 13.658-5.654s9.882 1.885 13.654 5.654c7.539 7.539 7.539 19.766 0 27.312l-287.037 287.034 287.037 287.035c7.539 7.542 7.539 19.767 0 27.308-7.542 7.542-19.766 7.542-27.312 0l-287.034-287.035-287.035 287.032c-7.542 7.541-19.767 7.541-27.308 0-7.542-7.54-7.542-19.767 0-27.309l287.035-287.032-287.034-287.034c-7.541-7.542-7.541-19.77 0-27.309z" />
<glyph unicode="&#xe90c;" glyph-name="close1" d="M815.622 706.835c5.869 5.967 5.869 14.918 0 20.886l-35.216 35.804c-2.934 2.984-5.869 2.984-8.803 2.984-2.938 0-5.872-2.984-8.806-2.984l-255.318-259.579-255.317 259.579c-5.869 5.967-14.674 5.967-20.543 0l-35.216-35.804c-5.869-5.967-5.869-14.918 0-20.886l255.32-259.58-255.32-259.581c-5.869-5.968-5.869-14.918 0-20.886l35.216-35.805c2.935-2.982 5.869-2.982 8.804-2.982s5.869 2.982 8.804 2.982l255.317 259.581 255.318-259.581c2.934-2.982 5.869-2.982 8.803-2.982 2.938 0 5.872 2.982 8.806 2.982l35.216 35.805c5.869 5.968 5.869 14.918 0 20.886l-252.384 259.581 255.318 259.58z" />
<glyph unicode="&#xe90d;" glyph-name="color" d="M512 768c176.731 0 320-143.269 320-320s-143.269-320-320-320c-176.731 0-320 143.269-320 320s143.269 320 320 320z" />
<glyph unicode="&#xe90e;" glyph-name="currency-bangladeshi2" d="M224 839.527c0 31.189 25.284 56.473 56.473 56.473 54.919 0 107.588-21.816 146.42-60.649s60.65-91.501 60.65-146.419v-94.122h244.717c31.187 0 56.474-25.283 56.474-56.474 0-31.187-25.286-56.474-56.474-56.474h-244.717v-244.717c0-24.963 9.917-48.902 27.568-66.554s41.59-27.568 66.554-27.568c24.963 0 48.902 9.917 66.554 27.568s27.568 41.59 27.568 66.554v75.299c0 31.187 25.283 56.474 56.474 56.474 31.187 0 56.474-25.286 56.474-56.474v-75.299c0-54.918-21.818-107.587-60.65-146.419s-91.501-60.65-146.419-60.65c-54.918 0-107.587 21.818-146.419 60.65s-60.65 91.501-60.65 146.419v244.717h-94.122c-31.189 0-56.473 25.286-56.473 56.474 0 31.19 25.284 56.474 56.473 56.474h94.122v94.122c0 24.963-9.917 48.903-27.568 66.554s-41.591 27.568-66.554 27.568c-31.189 0-56.473 25.284-56.473 56.473z" />
<glyph unicode="&#xe90f;" glyph-name="currency-dollar2" d="M506.365 896c31.19 0 56.474-25.284 56.474-56.473v-22.889c73.568-10.717 139.869-42.289 181.875-90.69 20.445-23.555 17.92-59.223-5.632-79.666-23.555-20.444-59.226-17.92-79.667 5.635-18.413 21.214-52.275 40.783-96.576 50.111v-186.561c50.47-7.334 96.922-24.426 134.586-49.533 50.982-33.984 91.309-87.136 91.309-153.488 0-66.355-40.326-119.504-91.309-153.491-37.664-25.107-84.115-42.198-134.586-49.533v-22.87c0-31.187-25.283-56.474-56.474-56.474-31.187 0-56.474 25.286-56.474 56.474v22.89c-73.565 10.717-139.867 42.291-181.874 90.691-20.444 23.555-17.921 59.222 5.634 79.664 23.555 20.445 59.222 17.923 79.667-5.632 18.41-21.216 52.275-40.784 96.573-50.112v186.56c-50.47 7.334-96.918 24.426-134.583 49.533-50.983 33.984-91.308 87.136-91.308 153.491 0 66.352 40.325 119.503 91.308 153.488 37.665 25.107 84.113 42.199 134.583 49.533v22.87c0 31.189 25.286 56.473 56.474 56.473zM449.891 702.008c-28.531-6.007-53.091-16.302-71.936-28.865-30.771-20.512-41.008-42.657-41.008-59.508s10.237-38.998 41.008-59.51c18.845-12.563 43.405-22.858 71.936-28.864v176.747zM562.838 400.816v-176.746c28.534 6.006 53.094 16.304 71.939 28.864 30.771 20.512 41.008 42.659 41.008 59.51s-10.237 38.995-41.008 59.507c-18.845 12.563-43.405 22.858-71.939 28.864z" />
<glyph unicode="&#xe910;" glyph-name="currency-euro2" d="M372.314 154.432c51.91-88.989 126.064-140.896 207.638-140.896 81.571 7.414 155.728 51.907 207.638 140.896 14.829 29.664 7.414 74.157-22.246 88.989-29.664 14.832-74.157 7.414-88.989-22.246-29.664-51.91-66.742-81.574-103.821-81.574s-74.157 29.664-103.818 81.574c-14.832 14.829-22.246 29.661-29.664 51.91h126.067c29.661 0 59.325 29.661 59.325 66.739s-22.246 66.742-59.325 66.742h-155.728v96.403h155.728c29.661 0 59.325 29.664 59.325 66.742s-22.246 66.739-59.325 66.739h-126.067c3.709 7.416 9.27 16.686 14.832 25.956s11.123 18.54 14.832 25.955c29.661 51.91 66.739 81.571 103.818 81.571s74.157-29.661 103.821-81.571c22.246-29.663 59.325-37.080 88.989-22.248 29.661 22.247 37.075 59.326 22.246 88.989-51.91 88.988-126.067 140.897-207.638 140.897-81.574 0-155.728-51.909-207.638-140.897-22.246-37.078-37.078-74.157-51.91-118.652h-37.079c-29.663 0-59.324-29.661-59.324-66.739s22.246-66.742 59.324-66.742h14.832v-96.403h-14.832c-29.663 0-59.324-29.664-59.324-66.742s22.246-66.739 59.324-66.739h37.079c14.832-44.496 29.664-81.574 51.91-118.653z" />
<glyph unicode="&#xe911;" glyph-name="currency-pound2" d="M435.245 771.351c38.832 38.833 91.501 60.649 146.419 60.649s107.587-21.816 146.419-60.649c38.832-38.833 60.65-91.501 60.65-146.42 0-31.187-25.286-56.474-56.474-56.474-31.19 0-56.474 25.286-56.474 56.474 0 24.963-9.917 48.903-27.568 66.555s-41.59 27.568-66.554 27.568c-24.963 0-48.902-9.916-66.554-27.568s-27.568-41.592-27.568-66.555v-169.418h94.122c31.187 0 56.474-25.286 56.474-56.474 0-31.19-25.286-56.474-56.474-56.474h-94.122v-94.122c0-33.027-7.891-65.242-22.627-94.122h267.344c31.187 0 56.474-25.286 56.474-56.474 0-31.19-25.286-56.474-56.474-56.474h-451.786c-31.189 0-56.473 25.283-56.473 56.474 0 31.187 25.284 56.474 56.473 56.474 24.963 0 48.903 9.914 66.554 27.568 17.651 17.651 27.568 41.59 27.568 66.554v94.122h-94.122c-31.189 0-56.473 25.283-56.473 56.474 0 31.187 25.284 56.474 56.473 56.474h94.122v169.418c0 54.918 21.818 107.587 60.65 146.42z" />
<glyph unicode="&#xe912;" glyph-name="currency-rupee2" d="M224.002 775.527c0 31.189 25.284 56.473 56.473 56.473h451.784c31.19 0 56.474-25.284 56.474-56.473s-25.283-56.473-56.474-56.473h-150.595c14.15-18.868 25.914-39.476 34.979-61.363 6.915-16.692 12.195-33.966 15.789-51.582h99.827c31.19 0 56.474-25.286 56.474-56.474 0-31.19-25.283-56.474-56.474-56.474h-99.827c-3.594-17.616-8.874-34.893-15.789-51.584-14.189-34.259-34.989-65.386-61.206-91.606-26.221-26.221-57.35-47.018-91.606-61.21-16.992-7.037-34.586-12.381-52.531-15.981l135.002-134.998c22.054-22.054 22.054-57.811 0-79.866s-57.811-22.054-79.866 0l-225.893 225.891c-16.151 16.154-20.983 40.442-12.242 61.546 8.741 21.101 29.333 34.861 52.174 34.861h75.298c22.25 0 44.278 4.384 64.835 12.896 20.554 8.515 39.229 20.995 54.963 36.726 15.731 15.731 28.211 34.41 36.723 54.963 1.146 2.762 2.214 5.549 3.21 8.362h-235.029c-31.189 0-56.473 25.283-56.473 56.474 0 31.187 25.284 56.474 56.473 56.474h235.029c-0.995 2.81-2.064 5.597-3.21 8.358-8.512 20.557-20.992 39.233-36.723 54.965-15.734 15.732-34.41 28.211-54.963 36.725-20.557 8.514-42.586 12.896-64.835 12.896h-75.298c-31.189 0-56.473 25.284-56.473 56.473z" />
<glyph unicode="&#xe913;" glyph-name="currency-solperu1" d="M434.838 798.158c73.568-10.717 139.869-42.289 181.875-90.69 20.445-23.555 17.92-59.223-5.632-79.666-23.555-20.442-59.226-17.92-79.667 5.635-18.413 21.214-52.275 40.783-96.576 50.11l-112.947-0.019c-28.532-6.007-53.091-16.303-71.937-28.865-30.772-20.513-41.008-42.657-41.008-59.508s10.237-38.998 41.008-59.51c18.846-12.56 43.404-22.858 71.937-28.864l112.947-9.795c50.47-7.331 96.922-24.426 134.586-49.533 50.982-33.984 91.309-87.136 91.309-153.488s-40.326-119.504-91.309-153.491c-37.664-25.104-84.115-42.198-134.586-49.533-24.646-3.581-50.736-2.349-76.17-1.152-12.499 0.592-24.842 1.171-36.778 1.171-73.565 10.72-139.867 42.291-181.874 90.691-20.444 23.555-17.921 59.222 5.634 79.667 23.555 20.442 59.223 17.92 79.666-5.635 18.412-21.216 52.275-40.784 96.573-50.112l112.947 0.019c28.534 6.006 53.094 16.304 71.939 28.864 30.771 20.512 41.008 42.659 41.008 59.51s-10.237 38.995-41.008 59.507c-18.845 12.563-43.405 22.858-71.939 28.867l-112.947 9.792c-50.469 7.334-96.918 24.429-134.583 49.533-50.983 33.987-91.308 87.139-91.308 153.491s40.325 119.504 91.308 153.489c37.665 25.107 84.114 42.199 134.583 49.533 19.731 2.867 53.251 1.727 81.29 0.774 12.086-0.411 23.152-0.788 31.658-0.793zM927.363 764.429c20.71-6.904 31.904-29.292 25.002-50.004l-197.658-592.967c-6.902-20.714-29.29-31.907-50.003-25.005-20.714 6.906-31.907 29.293-25.002 50.006l197.654 592.967c6.906 20.712 29.293 31.906 50.006 25.002zM886.624 105.722c31.19 0 56.474 25.283 56.474 56.474s-25.283 56.474-56.474 56.474c-31.19 0-56.474-25.283-56.474-56.474s25.283-56.474 56.474-56.474z" />
<glyph unicode="&#xe914;" glyph-name="currency-yen2" d="M251.427 823.944c26.744 16.047 61.434 7.374 77.479-19.37l164.266-273.773h26.406l164.266 273.773c16.045 26.745 50.736 35.417 77.478 19.37 26.746-16.047 35.418-50.736 19.37-77.481l-129.395-215.663h80.97c31.19 0 56.474-25.283 56.474-56.47 0-31.19-25.283-56.474-56.474-56.474h-148.739l-20.678-34.467v-78.48h169.418c31.19 0 56.474-25.283 56.474-56.474s-25.283-56.474-56.474-56.474h-169.418v-94.122c0-31.19-25.283-56.474-56.474-56.474s-56.474 25.283-56.474 56.474v94.122h-169.419c-31.189 0-56.473 25.283-56.473 56.474s25.284 56.474 56.473 56.474h169.419v78.48l-20.678 34.467h-148.741c-31.189 0-56.473 25.283-56.473 56.474 0 31.187 25.284 56.47 56.473 56.47h80.971l-129.396 215.663c-16.047 26.745-7.374 61.434 19.37 77.481z" />
<glyph unicode="&#xe915;" glyph-name="discord" d="M867.424 779.613c-66.285 31.013-137.158 53.553-211.258 66.387-9.101-16.453-19.731-38.582-27.062-56.186-78.768 11.846-156.813 11.846-234.131 0-7.328 17.604-18.202 39.733-27.386 56.186-74.177-12.834-145.134-35.456-211.419-66.551-133.698-202.035-169.942-399.052-151.82-593.273 88.676-66.221 174.613-106.448 259.1-132.771 20.86 28.71 39.465 59.229 55.492 91.395-30.525 11.597-59.761 25.91-87.386 42.528 7.329 5.43 14.497 11.107 21.423 16.947 168.491-78.806 351.563-78.806 518.039 0 7.008-5.84 14.176-11.517 21.424-16.947-27.706-16.698-57.024-31.011-87.549-42.611 16.029-32.083 34.554-62.685 55.494-91.392 84.566 26.323 170.586 66.547 259.261 132.851 21.264 225.152-36.323 420.358-152.224 593.437zM341.894 305.619c-50.578 0-92.058 47.219-92.058 104.72s40.594 104.803 92.058 104.803c51.469 0 92.944-47.219 92.061-104.803 0.080-57.501-40.592-104.72-92.061-104.72zM682.102 305.619c-50.582 0-92.061 47.219-92.061 104.72s40.592 104.803 92.061 104.803c51.462 0 92.944-47.219 92.058-104.803 0-57.501-40.595-104.72-92.058-104.72z" />
<glyph unicode="&#xe916;" glyph-name="error" d="M680.794 256l23.194 23.19-168.803 168.813 168.816 168.8-23.194 23.19-168.813-168.797-168.797 168.803-23.194-23.19 168.797-168.806-168.8-168.787 23.194-23.19 168.8 168.784 168.8-168.81z" />
<glyph unicode="&#xe917;" glyph-name="less" d="M768 464v-32h-512v32h512z" />
<glyph unicode="&#xe918;" glyph-name="li_oval" d="M512 576c70.692 0 128-57.308 128-128s-57.308-128-128-128c-70.692 0-128 57.308-128 128s57.308 128 128 128z" />
<glyph unicode="&#xe919;" glyph-name="li_square" d="M384 576h256v-256h-256v256z" />
<glyph unicode="&#xe91a;" glyph-name="medium" d="M186.541 650.064c0.523 5.194-0.177 10.438-2.044 15.313s-4.849 9.245-8.708 12.762l-79.701 96.725v14.464h247.381l191.232-422.614 168.106 422.614h235.862v-14.464l-68.138-65.749c-2.89-2.229-5.117-5.201-6.445-8.597-1.331-3.397-1.715-7.091-1.107-10.688v-483.583c-0.608-3.597-0.224-7.293 1.107-10.688 1.328-3.398 3.555-6.368 6.445-8.598l66.56-65.792v-14.506h-334.637v14.464l68.909 67.411c6.784 6.829 6.784 8.832 6.784 19.245v390.912l-191.661-490.413h-25.856l-223.145 490.413v-328.704c-1.835-13.824 2.731-27.734 12.373-37.718l89.642-109.568v-14.422h-254.165v14.422l89.6 109.568c4.741 4.947 8.259 10.934 10.274 17.482 2.015 6.55 2.471 13.478 1.331 20.237v380.074z" />
<glyph unicode="&#xe91b;" glyph-name="menu2" d="M224 669.867v34.133h576v-34.133h-576zM224 430.966v34.134h576v-34.134h-576zM224 226.15v-34.134h576v34.134h-576z" />
<glyph unicode="&#xe91c;" glyph-name="moneypile" d="M921.6 454.026v4.301c53.846 37.869 85.334 84.547 85.334 135.629v144.178c0 126.481-198.093 221.867-460.8 221.867s-460.801-95.386-460.801-221.867v-38.741c-55.672-37.308-85.333-82.704-85.333-131.926v-144.179c0-56.269 38.144-107.229 102.4-146.925v-109.075c0-129.69 202.411-231.286 460.8-231.286s460.8 101.597 460.8 231.286v144.179c0 54.358-35.6 103.408-102.4 142.56zM989.866 311.466c0-109.107-199.373-204.8-426.666-204.8-9.814 0-19.558 0.256-29.251 0.598-2.886 0.102-5.77 0.205-8.653 0.342-8.448 0.374-16.845 0.886-25.174 1.536-5.427 0.426-10.803 0.938-16.179 1.466-2.371 0.224-4.746 0.48-7.101 0.717-140.406 15.104-259.839 65.741-312.080 129.709-0.683 0.851-1.417 1.69-2.082 2.56-0.785 1.005-1.485 2.029-2.253 3.053 24.013-10.24 50.142-19.283 78.182-26.88 75.759-49.834 193.637-78.368 324.591-78.368 231.322 0 392.534 89.632 392.534 170.067 0 23.706-14.406 47.309-41.779 68.813 0.442 1.213 0.749 2.458 1.158 3.686 0.582 1.776 1.178 3.533 1.674 5.309 0.579 2.064 1.059 4.131 1.536 6.211 0.41 1.792 0.835 3.584 1.178 5.395 0.394 2.099 0.65 4.214 0.922 6.314 0.24 1.827 0.496 3.635 0.666 5.462 0.051 0.528 0.154 1.056 0.189 1.587 35.309-23.878 68.589-58.234 68.589-102.778zM633.702 75.331c0.512 0.035 1.008 0.102 1.52 0.138 9.795 0.803 19.437 1.808 29.011 2.918 2.477 0.291 4.934 0.579 7.392 0.886 9.472 1.197 18.874 2.477 28.109 3.962v-102.266c-22.067-3.565-44.87-6.33-68.269-8.157v102.349c0.736 0.067 1.485 0.102 2.237 0.17zM733.866 89.514c0.973 0.205 1.878 0.445 2.835 0.65 9.181 1.946 18.259 3.994 27.136 6.23 1.158 0.288 2.285 0.614 3.446 0.922 5.99 1.536 11.93 3.139 17.766 4.794v-102.211c-16.4-4.726-33.501-8.944-51.2-12.63l0.016 102.246zM819.2 112.912c0.922 0.326 1.827 0.634 2.73 0.957 1.299 0.461 2.528 0.938 3.824 1.398 7.050 2.544 13.942 5.206 20.72 7.936 1.926 0.787 3.856 1.555 5.75 2.339 0.374 0.154 0.752 0.307 1.126 0.461v-101.77c-10.89-4.726-22.256-9.216-34.134-13.414l-0.016 102.093zM887.466 141.891c2.938 1.504 5.77 3.072 8.621 4.608 1.654 0.89 3.309 1.776 4.931 2.682 6.589 3.686 12.989 7.475 19.114 11.366 0.48 0.307 0.973 0.595 1.453 0.902v-99.411c-10.378-7.408-21.779-14.509-34.134-21.216l0.016 101.069zM204.8 161.45c10.633-6.81 22.153-13.21 34.133-19.37v-101.258c-12.356 6.726-23.757 13.808-34.133 21.216v99.411zM119.467 647.868c0.273-0.341 0.597-0.666 0.87-0.99 3.789-4.727 7.868-9.387 12.203-13.959 0.973-1.024 1.997-2.016 2.987-3.021 3.857-3.91 7.902-7.75 12.134-11.539 1.007-0.902 1.963-1.808 3.004-2.694 0.99-0.854 1.946-1.69 2.935-2.509v-95.078c-21.931 23.482-34.133 49.168-34.133 75.878v53.913zM208.316 575.862c1.621-0.902 3.294-1.792 4.932-2.678 2.85-1.552 5.683-3.107 8.619-4.608v-101.069c-12.356 6.723-23.757 13.808-34.133 21.213v99.398c0.478-0.307 0.973-0.598 1.451-0.906 6.144-3.875 12.544-7.664 19.132-11.35zM262.878 549.888c6.758-2.749 13.653-5.392 20.719-7.936 1.28-0.461 2.526-0.957 3.823-1.398 0.904-0.326 1.826-0.634 2.731-0.957v-102.077c-11.878 4.198-23.245 8.688-34.133 13.414v101.77c0.376-0.154 0.751-0.307 1.126-0.461 1.877-0.819 3.806-1.587 5.734-2.355zM345.482 523.075c8.874-2.234 17.952-4.282 27.136-6.227 0.954-0.205 1.875-0.445 2.832-0.65v-102.246c-17.699 3.686-34.8 7.901-51.2 12.63v102.211c5.837-1.674 11.776-3.261 17.766-4.797 1.178-0.307 2.304-0.63 3.466-0.922zM445.082 505.053c9.574-1.107 19.235-2.115 29.014-2.918 0.512-0.032 1.005-0.102 1.517-0.134 0.736-0.051 1.485-0.102 2.237-0.154v-102.349c-23.398 1.824-46.198 4.573-68.266 8.157v102.262c9.232-1.485 18.637-2.781 28.109-3.958 2.474-0.323 4.931-0.614 7.389-0.906zM546.134 499.2c10.717 0 21.315 0.256 31.846 0.63 0.749 0.035 1.536 0.019 2.285 0.051v-102.006c-11.366-0.445-22.682-1.075-34.131-1.075-11.488 0-22.854 0.291-34.134 0.717v102.365c0.752-0.032 1.536-0.016 2.288-0.051 10.528-0.374 21.126-0.63 31.846-0.63zM618.154 502.134c9.798 0.803 19.44 1.811 29.014 2.918 2.474 0.291 4.931 0.582 7.389 0.89 9.472 1.194 18.877 2.474 28.109 3.958v-102.042c-6.416-1.024-12.698-2.218-19.216-3.107-3.414-0.461-6.794-0.954-10.24-1.382-12.784-1.568-25.77-2.678-38.81-3.686v102.128c0.733 0.051 1.485 0.102 2.237 0.154 0.512 0.067 1.005 0.138 1.517 0.17zM746.787 523.075c1.158 0.291 2.285 0.614 3.446 0.922 5.99 1.536 11.93 3.142 17.766 4.797v-102.211c-2.186-0.634-4.387-1.248-6.589-1.843-0.016 0-0.051 0-0.067-0.019-3.824-1.056-7.68-2.115-11.571-3.123-9.405-2.422-18.96-4.659-28.688-6.739-1.434-0.307-2.851-0.614-4.285-0.906v102.246c0.973 0.205 1.878 0.445 2.832 0.65 9.2 1.946 18.278 3.994 27.155 6.227zM808.688 541.936c7.046 2.541 13.942 5.203 20.717 7.936 1.93 0.784 3.859 1.552 5.754 2.336 0.374 0.154 0.749 0.307 1.126 0.461v-101.766c-10.89-4.73-22.256-9.216-34.134-13.414v102.074c0.922 0.326 1.827 0.634 2.73 0.957 1.28 0.477 2.528 0.957 3.808 1.418zM883.952 575.862c6.586 3.686 12.986 7.475 19.114 11.366 0.477 0.307 0.973 0.598 1.45 0.906v-99.414c-10.374-7.405-21.776-14.506-34.131-21.213v101.069c2.934 1.501 5.766 3.072 8.618 4.608 1.674 0.886 3.328 1.776 4.95 2.678zM171.793 381.558c1.894-0.8 3.823-1.568 5.752-2.336 6.758-2.749 13.653-5.395 20.719-7.936 1.28-0.461 2.526-0.957 3.823-1.402 0.905-0.323 1.826-0.63 2.731-0.954v-102.077c-11.878 4.198-23.245 8.688-34.133 13.414v101.77c0.358-0.173 0.734-0.326 1.109-0.48zM260.147 352.41c8.875-2.237 17.954-4.285 27.136-6.23 0.956-0.205 1.877-0.442 2.833-0.646v-102.246c-0.973 0.205-1.946 0.41-2.901 0.614-9.165 1.926-18.176 4.010-27.034 6.246-7.219 1.824-14.285 3.77-21.248 5.766v102.214c5.837-1.674 11.776-3.261 17.766-4.797 1.16-0.307 2.287-0.63 3.447-0.922zM359.747 334.387c9.574-1.11 19.235-2.115 29.014-2.918 0.512-0.035 1.008-0.102 1.52-0.138 0.733-0.051 1.485-0.102 2.234-0.154v-102.125c-11.741 0.902-23.43 1.91-34.95 3.258-5.565 0.65-11.043 1.453-16.538 2.202-5.667 0.787-11.181 1.776-16.778 2.662v102.061c9.232-1.485 18.637-2.784 28.109-3.962 2.474-0.307 4.931-0.595 7.389-0.886zM460.8 328.534c11.453 0 22.8 0.39 34.134 0.835v-102.518c-0.358-0.019-0.717-0.035-1.075-0.035-10.957-0.41-21.949-0.682-33.059-0.682-11.434 0-22.768 0.614-34.134 1.056v102.026c0.752-0.035 1.536-0.016 2.288-0.051 10.531-0.374 21.13-0.63 31.846-0.63zM577.603 234.035c-4.026-0.547-8.019-1.126-12.083-1.622-8.822-1.056-17.747-1.978-26.742-2.765-2.986-0.272-5.974-0.528-8.976-0.768-0.24-0.016-0.496-0.032-0.736-0.051v102.624c5.6 0.442 11.264 0.698 16.829 1.245 5.632 0.563 11.126 1.398 16.707 2.064 8.227 0.973 16.522 1.843 24.627 3.072 3.414 0.512 6.707 1.213 10.106 1.776v-102.64c-1.453-0.237-2.886-0.461-4.336-0.698-5.104-0.787-10.224-1.536-15.395-2.237zM644.829 348.963c7.152 1.638 14.406 3.155 21.386 4.982 5.597 1.469 10.941 3.21 16.435 4.797v-102.829c-16.4-4.726-33.501-8.941-51.2-12.627v102.57c4.541 0.957 8.925 2.083 13.379 3.107zM716.8 369.629c1.091 0.394 2.166 0.787 3.261 1.178 6.262 2.237 12.662 4.352 18.72 6.758 4.166 1.658 8.058 3.517 12.134 5.258v-102.554c-10.886-4.726-22.253-9.216-34.131-13.414l0.016 102.774zM785.066 296.822v98.374c11.76 3.514 23.11 7.302 34.134 11.315v-88.474c-10.378-7.408-21.776-14.49-34.134-21.216zM887.466 423.286c0-12.986-2.934-25.718-8.413-38.074l-1.552-3.21c-5.069-10.531-12.102-20.669-20.566-30.464-1.024-1.178-1.997-2.355-3.072-3.517-0.17-0.17-0.358-0.339-0.528-0.528v72.771c11.946 5.309 23.363 10.906 34.131 16.813v-13.792zM102.4 417.45c0.478-0.307 0.973-0.595 1.451-0.902 6.144-3.891 12.527-7.68 19.115-11.366 1.621-0.906 3.294-1.792 4.932-2.682 2.85-1.552 5.683-3.104 8.619-4.608v-86.426h-24.525c-3.294 2.17-6.485 4.352-9.591 6.573v99.411zM273.067 126.054c10.974-4.624 22.357-8.995 34.133-13.091v-102.125c-11.878 4.198-23.245 8.685-34.133 13.414v101.802zM341.334 102.246c16.518-4.726 33.517-9.062 51.2-12.733v-102.246c-17.699 3.686-34.8 7.904-51.2 12.63v102.349zM426.666 83.267c2.662-0.426 5.427-0.749 8.125-1.158 4.080-0.614 8.192-1.197 12.304-1.741 6.435-0.87 12.886-1.69 19.424-2.426 6.502-0.733 13.037-1.382 19.626-1.978 2.934-0.256 5.837-0.547 8.79-0.787v-102.381c-23.398 1.824-46.202 4.573-68.269 8.157v102.314zM972.8 647.868v-53.932c0-26.707-12.202-52.394-34.134-75.878v95.078c0.992 0.819 1.946 1.658 2.918 2.493 1.024 0.886 1.997 1.808 3.005 2.698 4.25 3.789 8.294 7.629 12.134 11.536 0.989 1.008 2.032 2.013 2.986 3.021 4.352 4.573 8.416 9.233 12.205 13.961 0.288 0.375 0.614 0.7 0.886 1.024zM546.134 925.867c239.258 0 426.666-82.466 426.666-187.733 0-109.106-199.373-204.799-426.666-204.799-227.295 0-426.668 95.693-426.668 204.799 0 105.267 187.409 187.733 426.668 187.733zM34.133 423.286v53.933c0.273-0.342 0.597-0.666 0.87-0.992 3.789-4.726 7.868-9.386 12.203-13.958 0.973-1.024 1.997-2.016 2.987-3.021 3.857-3.91 7.902-7.75 12.134-11.539 1.007-0.902 1.963-1.808 3.004-2.694 0.99-0.87 1.946-1.709 2.935-2.528v-95.078c-21.931 23.485-34.133 49.171-34.133 75.878zM136.533 167.286v53.933c9.523-12.067 21.077-23.587 34.133-34.579v-95.213c-21.931 23.466-34.133 49.152-34.133 75.859zM529.066-29.149v102.365c0.819-0.035 1.658-0.016 2.477-0.051 10.477-0.374 21.024-0.63 31.658-0.63 10.717 0 21.315 0.256 31.846 0.63 0.752 0.035 1.536 0.016 2.288 0.051v-102.365c-11.283-0.429-22.65-0.717-34.134-0.717s-22.851 0.288-34.134 0.717zM989.866 221.2v-53.93c0-26.71-12.202-52.394-34.131-75.878v95.078c0.989 0.819 1.946 1.654 2.918 2.493 1.024 0.886 1.997 1.808 3.002 2.694 4.25 3.789 8.294 7.629 12.134 11.539 0.992 1.005 2.032 2.013 2.989 3.021 4.352 4.573 8.413 9.232 12.202 13.958 0.291 0.378 0.614 0.701 0.886 1.024zM334.557 596.531l127.2 45.909 0.205 1.758c-34.202 14.814-48.71 37.598-54.461 57.532-8.003 3.516-14.269 8.789-18.141 15.36-4.371 7.407-5.36 16.026-2.835 24.303l3.226 10.53c3.414 11.042 13.229 20.48 26.899 26.129 4.64 8.653 10.496 16.555 17.44 23.586 3.072 3.089 5.581 5.393 7.613 7.253 0.291 0.256 0.547 0.495 0.803 0.717-0.035 0.239-0.086 0.495-0.122 0.751-0.717 4.301-0.973 8.226-0.973 11.52-0.016 10.462 8.877 18.654 20.208 18.654 4.557 0 8.79-1.348 12.237-3.908 0.835-0.614 3.6-2.372 10.563-4.915 12.358-4.506 29.92-6.554 48.675-5.751 2.902 0.119 5.837 0.188 8.842 0.188 42.051 0 99.702-5.137 124.877-47.94 13.875-5.649 23.859-15.155 27.306-26.317l3.226-10.513c2.544-8.26 1.536-16.896-2.816-24.303-3.875-6.588-10.154-11.844-18.16-15.36-5.75-19.951-20.256-42.718-54.458-57.532l0.205-1.775 128.221-48.026c116.362 32.512 188.33 90.112 188.33 143.753 0 75.503-146.822 153.6-392.531 153.6s-392.534-78.097-392.534-153.6c0-52.497 68.949-108.748 180.957-141.602z" />
<glyph unicode="&#xe91d;" glyph-name="plane-down-b" d="M601.533 526.086l-140.477 194.828-44.854 12.019 50.394-169.374 134.938-37.472zM600.266 521.357l-135.546 38.010c-0.765 0.154-1.466 0.528-2.019 1.075-0.554 0.55-0.934 1.248-1.098 2.013l-50.394 169.374c-0.224 0.767-0.24 1.58-0.051 2.357 0.192 0.776 0.582 1.489 1.139 2.065 0.554 0.576 1.251 0.995 2.019 1.215s1.584 0.232 2.358 0.036l45.555-12.207c0.995-0.287 1.885-0.852 2.57-1.627l140.429-195.001c0.557-0.765 0.848-1.69 0.832-2.634s-0.339-1.856-0.918-2.602c-0.47-0.835-1.206-1.491-2.086-1.866s-1.862-0.448-2.79-0.208zM470.128 566.931l120.093-33.306-132.006 182.98-35.046 9.39 46.96-159.064zM969.136 353.971c-23.312 39.862-86.051 55.923-136.304 68.822l-17.523 4.698-565.155 154.624c-28.343 7.91-53.058 25.421-69.922 49.536l-46.194 65.899-94.968 25.447 83.633-163.070c5.509-10.774 13.222-20.272 22.637-27.875 9.416-7.6 20.324-13.139 32.019-16.253l247.409-66.294c3.459-0.845 6.624-2.624 9.139-5.146 2.518-2.522 4.291-5.69 5.13-9.152 0.835-3.462 0.704-7.091-0.384-10.483s-3.088-6.419-5.782-8.752l-196.539-184.714 90.238-24.179 293.51 184.269c2.256 1.398 4.774 2.32 7.395 2.717 2.624 0.394 5.302 0.25 7.869-0.419l342.55-91.786c2.954 17.859-0.128 36.198-8.758 52.112zM325.395 202.698l-90.238 24.179c-0.761 0.218-1.458 0.618-2.032 1.162-0.573 0.547-1.005 1.226-1.26 1.974-0.196 0.8-0.188 1.638 0.026 2.435 0.213 0.794 0.624 1.523 1.195 2.118l196.6 185.638c1.91 1.802 3.283 4.099 3.965 6.637 0.678 2.538 0.64 5.216-0.115 7.731-0.608 2.563-1.907 4.915-3.75 6.8s-4.166 3.229-6.72 3.891l-246.88 66.154c-12.326 3.254-23.827 9.072-33.754 17.069-9.926 8-18.055 18-23.856 29.354l-83.632 163.070c-0.242 0.829-0.252 1.708-0.028 2.543s0.672 1.591 1.296 2.188c0.437 0.686 1.052 1.242 1.778 1.609s1.538 0.532 2.35 0.478l94.968-25.447c1.026-0.286 1.919-0.924 2.522-1.803l45.446-65.886c16.181-23.302 40.066-40.144 67.447-47.558l582.63-159.494c50.989-13.664 114.794-29.258 139.13-70.896 9.331-16.954 12.614-36.576 9.315-55.642-0.080-0.65-0.298-1.274-0.64-1.83-0.346-0.557-0.803-1.030-1.35-1.395-1.117-0.653-2.451-0.835-3.702-0.509l-341.325 91.459c-1.974 0.499-4.029 0.602-6.042 0.304-2.013-0.301-3.949-0.995-5.693-2.045l-293.514-184.269c-0.621-0.381-1.334-0.586-2.064-0.589s-1.446 0.195-2.070 0.57zM245.39 233.526l80.425-21.552 292.995 182.342c2.89 1.77 6.112 2.918 9.469 3.376 3.354 0.461 6.768 0.218 10.026-0.71l335.542-89.907c1.818 15.408-1.229 30.998-8.71 44.589-22.413 38.304-84.054 54.259-133.478 66.752l-17.523 4.694-565.808 154.989c-29.433 7.987-55.104 26.102-72.491 51.162l-44.676 64.553-83.404 22.348 79.6-154.29c5.259-10.205 12.589-19.2 21.522-26.413s19.272-12.48 30.356-15.469l246.706-66.106c4.070-1.126 7.766-3.309 10.72-6.326 2.95-3.018 5.053-6.762 6.093-10.854s0.979-8.384-0.176-12.445c-1.155-4.061-3.363-7.744-6.4-10.675l-190.786-180.058z" />
<glyph unicode="&#xe91e;" glyph-name="plane-down" d="M23.313 199.187h1000.691v-54.614h-1000.691v54.614zM806.144 346.931c11.597-3.149 23.549 3.702 26.694 15.299s-3.702 23.549-15.299 26.694c-11.597 3.146-23.549-3.702-26.694-15.299-3.149-11.597 3.702-23.549 15.299-26.694zM299.848 483.363c11.596-3.146 23.547 3.702 26.696 15.299 3.146 11.597-3.706 23.549-15.301 26.694-11.596 3.149-23.548-3.702-26.695-15.299s3.703-23.549 15.3-26.694zM249.225 505.021c11.596-3.146 23.548 3.706 26.695 15.302s-3.703 23.546-15.3 26.694c-11.596 3.146-23.548-3.706-26.695-15.299-3.147-11.597 3.703-23.549 15.3-26.698zM337.939 677.007l-114.080 185.673-62.269 16.757 0.834-155.201 175.515-47.229zM845.299 521.626l-770.723 207.388c22.134-45.425 49.404-81.021 82.166-111.1l-68.199-43.162 65.528-24.038 57.726 24.522c16.563-10.826 33.492-20.352 50.733-28.822 1.341-0.499 2.611-1.12 3.795-1.846 14.746-7.098 29.715-13.446 44.872-19.19 1.387-0.374 2.704-0.874 3.946-1.478 25.326-9.408 51.172-17.187 77.374-24.042l-168.234-92.528 95.562-43.002 215.865 98.112 256.774-67.229c172.899-45.27 196.886-8.973 169.376 36.464-22.307 36.845-78.477 79.702-116.563 89.952z" />
<glyph unicode="&#xe91f;" glyph-name="plane-up-b" d="M532.406 592.282l-237.094 38.432-40.217-23.219 155.401-84.134 121.91 68.922zM534.858 588.038l-122.723-68.97c-0.65-0.429-1.411-0.662-2.192-0.666-0.778-0.003-1.542 0.221-2.195 0.646l-155.4 84.134c-0.702 0.384-1.29 0.944-1.704 1.629s-0.64 1.466-0.655 2.266c-0.015 0.8 0.182 1.587 0.57 2.288 0.388 0.698 0.955 1.283 1.641 1.693l40.845 23.581c0.906 0.499 1.935 0.73 2.967 0.666l237.185-38.589c0.934-0.147 1.792-0.595 2.451-1.274 0.656-0.678 1.072-1.552 1.19-2.49 0.256-0.925 0.202-1.904-0.157-2.794s-1.002-1.635-1.824-2.122zM410.608 528.243l108.47 61.37-222.732 36.042-31.419-18.141 145.68-79.27zM914.045 730.51c-44.669 11.704-100.39-21.305-145.046-47.716l-15.712-9.070-508.961-290.287c-25.635-14.448-55.492-19.546-84.468-14.416l-79.262 13.933-85.146-49.158 174.445-56.17c11.515-3.725 23.683-4.986 35.717-3.706 12.034 1.283 23.663 5.082 34.135 11.149l221.819 128.067c3.046 1.85 6.541 2.829 10.102 2.822 3.565-0.003 7.056-0.986 10.099-2.845 3.040-1.856 5.51-4.515 7.139-7.683 1.632-3.168 2.358-6.723 2.102-10.275l-8.362-269.587 80.902 46.71 77.248 337.843c0.608 2.582 1.734 5.014 3.309 7.149 1.578 2.134 3.571 3.926 5.859 5.267l307.123 177.316c-10.541 14.718-25.686 25.505-43.043 30.656zM565.818 168.349l-80.906-46.71c-0.691-0.384-1.466-0.595-2.256-0.614-0.794-0.019-1.578 0.154-2.288 0.506-0.704 0.429-1.29 1.027-1.702 1.741s-0.637 1.52-0.656 2.342l7.754 270.282c0.077 2.627-0.576 5.222-1.891 7.498-1.312 2.275-3.235 4.141-5.546 5.386-2.246 1.382-4.826 2.128-7.462 2.157-2.634 0.029-5.229-0.662-7.501-2l-221.35-127.795c-11.017-6.413-23.263-10.432-35.938-11.795s-25.495-0.038-37.624 3.888l-174.445 56.17c-0.757 0.416-1.386 1.030-1.818 1.776-0.432 0.749-0.65 1.603-0.631 2.464-0.176 0.797-0.135 1.622 0.119 2.397 0.254 0.771 0.711 1.462 1.324 1.997l85.146 49.162c0.928 0.522 2.010 0.701 3.058 0.509l78.724-14.454c27.917-5.037 56.715-0.054 81.32 14.064l524.761 299.2c45.715 26.394 101.859 60.484 148.512 48.249 18.582-5.39 34.781-16.942 45.933-32.758 0.4-0.515 0.688-1.111 0.838-1.748s0.16-1.297 0.032-1.938c-0.33-1.253-1.142-2.324-2.259-2.98l-306.022-176.681c-1.75-1.043-3.274-2.422-4.486-4.058s-2.090-3.494-2.582-5.469l-77.245-337.846c-0.17-0.707-0.531-1.357-1.046-1.875-0.512-0.518-1.158-0.883-1.866-1.062zM487.446 133.574l72.109 41.632 78.243 336.115c0.794 3.293 2.259 6.387 4.307 9.082 2.048 2.698 4.634 4.941 7.594 6.589l300.838 173.688c-9.61 12.18-22.787 21.051-37.69 25.37-42.934 11.239-97.802-21.068-141.584-47.183l-15.709-9.070-509.681-290.494c-26.46-15.165-57.423-20.506-87.435-15.082l-77.237 14.054-74.778-43.171 165.385-52.813c10.935-3.498 22.479-4.675 33.894-3.459s22.452 4.803 32.404 10.525l221.192 127.706c3.674 2.080 7.83 3.152 12.051 3.104 4.224-0.045 8.355-1.206 11.984-3.363 3.629-2.16 6.621-5.238 8.675-8.928 2.054-3.686 3.098-7.853 3.024-12.074l-7.587-262.227z" />
<glyph unicode="&#xe920;" glyph-name="plane-up" d="M824.358 527.315c11.846 2.006 19.824 13.235 17.821 25.082-2.006 11.846-13.235 19.827-25.082 17.821-11.85-2.003-19.827-13.235-17.821-25.082 2.003-11.846 13.232-19.827 25.082-17.821zM307.505 438.922c11.847 2.003 19.826 13.235 17.823 25.082-2.006 11.846-13.236 19.827-25.083 17.821-11.847-2.003-19.826-13.235-17.821-25.082s13.235-19.827 25.082-17.821zM252.466 437.363c11.847 2.003 19.826 13.232 17.821 25.082-2.005 11.846-13.235 19.824-25.082 17.821-11.847-2.006-19.826-13.235-17.821-25.082s13.235-19.827 25.082-17.821zM260.904 630.694l-181.411 120.743-63.558-10.892 65.823-140.555 179.146 30.704zM786.666 702.332l-786.666-134.834c39.14-31.958 78.82-52.845 121.174-66.416l-43.821-67.776 69.57 5.648 42.128 46.464c19.576-2.886 38.939-4.438 58.143-4.899 1.427 0.109 2.839 0.077 4.219-0.086 16.363-0.262 32.615 0.25 48.785 1.389 1.415 0.243 2.82 0.342 4.202 0.314 26.938 2.077 53.661 5.846 80.324 10.611l-113.943-154.534 104.784 1.024 154.848 179.571 261.306 46.614c175.949 31.386 182.509 74.394 138.486 104.114-35.702 24.099-104.662 39.458-143.539 32.797zM23.31 199.184h1000.69v-54.614h-1000.69v54.614z" />
<glyph unicode="&#xe921;" d="M928 448c0-229.75-186.25-416-416-416s-416 186.25-416 416c0 229.75 186.25 416 416 416s416-186.25 416-416z" />
<glyph unicode="&#xe922;" d="M469.843 549.629c-1.93 0.093-3.85-0.342-5.555-1.254-1.702-0.915-3.126-2.272-4.115-3.933-0.992-1.661-1.514-3.558-1.507-5.491v-181.955c-0.003-1.933 0.522-3.83 1.514-5.488s2.416-3.014 4.118-3.923c1.702-0.912 3.622-1.344 5.552-1.251 1.926 0.096 3.795 0.71 5.402 1.782l136.41 90.97c1.462 0.973 2.662 2.294 3.491 3.843 0.826 1.546 1.261 3.277 1.261 5.030 0 1.757-0.435 3.485-1.261 5.034-0.874 1.629-2.102 2.96-3.488 3.885l-136.406 90.966c-1.61 1.072-3.485 1.693-5.414 1.786z" />
<glyph unicode="&#xe923;" glyph-name="plus2" d="M528 704h-32v-240h-240v-32h240v-240h32v240h240v32h-240v240z" />
<glyph unicode="&#xe924;" glyph-name="quotation" d="M232.25 246.499v158.25c0 75.002 17.75 134.253 53.25 177.75 36.001 43.501 88.25 72.001 156.749 85.501v-78c-50.998-16-85.251-43.501-102.749-82.499-9.002-20.499-12.752-41.75-11.251-63.75h117.75v-197.251h-213.75zM797.75 590c-50.499-15.501-84.499-43.501-102-84-10-21.501-14-42.25-12-62.25h117.75v-197.251h-213.75v158.25c0 76 18.25 135.501 54.749 178.502 37.002 42.998 88.752 71.249 155.251 84.749v-78z" />
<glyph unicode="&#xe925;" glyph-name="social_facebook" d="M778.538 748.592h-149.277c-17.654 0-37.354-22.777-37.354-53.187v-105.645h186.63v-150.531h-186.63v-452.032h-176.189v452.032h-159.718v150.531h159.718v88.616c0 127.061 90.019 230.421 213.542 230.421h149.277v-160.205z" />
<glyph unicode="&#xe926;" glyph-name="social_foursquare" d="M964.406 626.378l-436.829-426.010c-6.803-5.866-14.179-8.787-22.134-8.787-1.6 0-2.806 0.17-3.61 0.56-7.187 0.768-13.178 3.53-17.955 8.227l-243.557 238.109c-5.574 5.853-8.389 12.867-8.389 20.995 0 8.17 2.787 15.021 8.389 20.422l72.414 70.045c5.167 5.853 12.154 8.778 20.941 8.778 8.768 0 15.952-2.925 21.536-8.778l150.819-147.082 343.491 335.653c5.971 5.792 13.174 8.715 21.546 8.715 8.362 0 15.565-2.923 21.539-8.715l71.798-70.097c5.61-5.801 8.397-12.814 8.397-20.986 0-8.18-2.787-15.194-8.397-21.050zM938.656 373.050l-351.28-342.566c-20.742-20.653-46.182-30.986-76.307-30.986-30.106 0-55.754 10.333-76.883 30.986l-351.282 342.566c-21.131 20.65-31.7 45.51-31.7 74.73 0 29.158 10.542 54.070 31.7 74.723l351.282 342.566c21.13 20.651 46.669 30.931 76.576 30.931 29.946 0 55.466-10.28 76.614-30.931l158.573-154.655-238.163-232.862-112.512 109.744c-16.733 16.288-36.48 24.47-59.248 24.47-23.519 0-43.455-7.955-59.835-23.92l-71.798-70.592c-16.769-15.622-25.139-34.842-25.139-57.818 0-22.544 8.371-41.981 25.139-58.333l242.968-238.109c11.946-10.88 25.322-18.118 40.099-21.658l3.555-2.317h16.771c23.936 0 43.69 8.010 59.264 23.974l370.394 361.226 1.213-1.718c21.13-20.598 31.709-45.565 31.709-74.723 0-29.219-10.579-54.080-31.709-74.73z" />
<glyph unicode="&#xe927;" glyph-name="social_googleplus" d="M972.803 453.514h-154.278v-151.165h-97.718v151.165h-154.278v95.734h154.278v151.166h97.718v-151.166h154.278v-95.734zM455.734 41.517c-61.373-29.203-127.446-32.397-153.039-32.397-4.849 0-7.677 0.109-8.127 0.109 0 0-1.828-0.054-4.932-0.054-39.855 0-238.434 9.027-238.434 186.253 0 174.154 216.238 187.715 282.512 187.715l1.747-0.054c-38.286 50.106-30.352 100.611-30.352 100.611-3.398-0.23-8.247-0.448-14.326-0.448-24.942 0-73.062 3.92-114.451 30.102-50.591 31.885-76.23 86.256-76.23 161.523 0 212.436 236.754 221.068 239.131 221.123h236.515v-4.996c0-26.007-47.478-30.938-79.904-35.245-10.928-1.515-32.986-3.765-39.238-6.897 59.866-31.278 69.581-80.546 69.581-154.030 0-83.514-33.402-127.674-68.819-158.787-21.866-19.165-39.178-34.301-39.178-54.477 0-19.789 23.677-40.186 51.114-63.731 44.925-38.678 106.445-91.638 106.445-180.598 0-91.968-40.397-157.885-120.016-195.722zM420.15 723.283c-24.586 84.743-64.291 109.859-126.032 109.859-6.694 0-13.371-0.9-19.78-2.691-26.742-7.402-47.983-29.313-59.811-61.711-12.021-33.014-12.857-67.258-2.379-106.498 18.743-69.839 69.444-120.568 120.593-120.568 6.694 0 13.363 0.902 19.754 2.646 55.827 15.466 90.861 99.096 67.654 178.963zM331.117 337.67c-5.296 0-10.595-0.227-15.95-0.56-45.228-3.261-86.846-19.843-117.169-46.752-29.873-26.512-45.126-59.846-42.941-93.878 4.509-70.794 82.199-112.442 176.556-105.654 92.909 6.611 154.758 58.912 150.25 129.814-4.291 66.698-63.421 117.030-150.746 117.030z" />
<glyph unicode="&#xe928;" glyph-name="social_instagram" d="M880.643 908.797h-737.28c-50.688 0-92.16-41.472-92.16-92.16v-737.28c0-50.688 41.472-92.16 92.16-92.16h737.28c50.688 0 92.16 41.472 92.16 92.16v737.28c0 50.688-41.472 92.16-92.16 92.16zM512.038 632.282c101.376 0 184.32-82.944 184.32-184.32s-82.944-184.32-184.32-184.32c-101.376 0-184.32 82.944-184.32 184.32s82.944 184.32 184.32 184.32zM166.475 79.392c-13.824 0-23.040 9.216-23.040 23.040v391.68h96.768c-4.608-13.824-4.608-32.256-4.608-46.080 0-152.064 124.414-276.48 276.478-276.48s276.48 124.416 276.48 276.48c0 13.824 0 32.256-4.608 46.080h96.768v-391.68c0-13.824-9.216-23.040-23.040-23.040h-691.198zM880.643 701.365c0-13.824-9.216-23.040-23.040-23.040h-92.16c-13.824 0-23.040 9.216-23.040 23.040v92.16c0 13.824 9.216 23.040 23.040 23.040h92.16c13.824 0 23.040-9.216 23.040-23.040v-92.16z" />
<glyph unicode="&#xe929;" glyph-name="social_linkedin" d="M546.806 533.808c0.378 0.576 0.858 1.264 1.235 1.904v-1.904h-1.235zM857.558 400.394c0 145.936-74.458 213.814-173.763 213.814-80.163 0-115.981-46.16-136.032-78.509v67.322h-150.934c2.045-44.547 0-474.976 0-474.976h150.957v265.245c0 14.198 1.027 28.323 4.992 38.544 10.934 28.371 35.731 57.747 77.44 57.747 54.614 0 76.429-43.584 76.429-107.437v-254.099h150.912v272.349zM239.014 832c-51.635 0-85.412-35.43-85.412-82.048 0-45.56 32.794-82.131 83.393-82.131h1.014c52.634 0 85.362 36.534 85.362 82.131-0.986 46.619-32.728 82.048-84.356 82.048zM162.616 128h150.888v474.982h-150.888v-474.982z" />
<glyph unicode="&#xe92a;" glyph-name="social_medium" d="M577.597 451.622c0-160.592-129.302-290.778-288.793-290.778-159.492 0-288.804 130.186-288.804 290.778 0 160.589 129.301 290.784 288.804 290.784 159.5 0 288.793-130.195 288.793-290.784zM894.416 451.622c0-151.165-64.653-273.754-144.403-273.754-79.754 0-144.4 122.589-144.4 273.754 0 151.162 64.64 273.75 144.39 273.75s144.4-122.55 144.4-273.75h0.013zM973.213 206.381c28.051 0 50.787 109.834 50.787 245.242 0 135.443-22.746 245.237-50.787 245.237s-50.778-109.807-50.778-245.237c0-135.437 22.723-245.242 50.778-245.242z" />
<glyph unicode="&#xe92b;" glyph-name="social_pinterest" d="M567.786 240.397c-57.274 4.358-81.309 32.138-126.176 58.893-24.723-126.915-54.886-248.538-144.239-312.093-27.57 191.802 40.511 335.824 72.121 488.72-53.898 88.874 6.506 267.852 120.186 223.731 139.872-54.232-121.168-330.55 54.083-365.046 182.976-36.026 257.648 311.074 144.205 423.88-163.923 162.999-477.166 3.745-438.654-229.567 9.38-57.098 69.516-74.378 24.043-153.098-104.921 22.749-136.227 103.837-132.213 211.93 6.516 176.94 162.252 300.773 318.473 317.946 197.565 21.683 383.021-71.044 408.614-253.156 28.854-205.525-89.158-428.181-300.442-412.14z" />
<glyph unicode="&#xe92c;" glyph-name="social_rss" d="M958.458-11.978h-179.245c-7.763 0-14.138 6.426-14.138 14.198 0 385.779-313.862 699.664-699.662 699.664-7.805 0-14.21 6.363-14.21 14.21v178.429c0 7.878 6.405 14.273 14.21 14.273 498.299 0 904.139-404.17 906.574-902.102l0.816-4.474c0-7.773-6.582-14.198-14.346-14.198zM657.667-11.91h-174.106c-7.91 0-14.208 6.426-14.208 14.202 0 222.749-181.272 403.939-403.94 403.939-7.805 0-14.21 6.371-14.21 14.166v173.405c0 7.878 6.405 14.272 14.21 14.272 332.43 0 603.348-269.405 605.867-601.354l0.659-4.429c0-7.776-6.352-14.202-14.272-14.202zM187.817-11.946c-75.323 0-136.614 61.363-136.614 136.486 0 75.418 61.291 136.669 136.614 136.669 75.355 0 136.615-61.251 136.615-136.669 0-75.165-61.26-136.486-136.615-136.486z" />
<glyph unicode="&#xe92d;" glyph-name="social_twitter" d="M878.464 636.419c0.358-7.914 0.554-15.936 0.554-23.907 0-244.835-190.189-527.165-537.981-527.165-106.797 0-206.181 30.675-289.842 83.238 14.802-1.744 29.837-2.621 45.122-2.621 88.597 0 170.094 29.648 234.812 79.331-82.723 1.523-152.574 55.078-176.651 128.659 11.573-2.182 23.424-3.328 35.57-3.328 17.271 0 33.978 2.291 49.844 6.502-86.505 17.030-151.679 91.923-151.679 181.667 0 0.762 0 1.584 0.027 2.288 25.49-13.808 54.638-22.16 85.62-23.146-50.739 33.245-84.126 89.914-84.126 154.219 0 33.951 9.337 65.773 25.633 93.132 93.213-112.075 232.575-185.825 389.711-193.527-3.222 13.542-4.883 27.68-4.883 42.205 0 102.292 84.634 185.22 189.072 185.22 54.368 0 103.523-22.494 138.019-58.466 43.050 8.291 83.491 23.746 120.074 44.925-14.141-43.234-44.112-79.591-83.171-102.46 38.246 4.472 74.682 14.409 108.608 29.148-25.357-37.18-57.402-69.762-94.333-95.915z" />
<glyph unicode="&#xe92e;" glyph-name="social_youtube" d="M972.797 176.787c0-91.197-75.35-165.162-168.317-165.162h-584.939c-92.98 0-168.346 73.965-168.346 165.162v132.8c0 91.197 75.366 165.203 168.346 165.203h584.939c92.966 0 168.317-74.006 168.317-165.203v-132.8zM285.3 896l38.399-136.553h3.718l36.566 136.553h60.054l-68.774-199.997v-141.782h-59.089v135.444l-70.372 206.335h59.496zM428.224 748.637c0 19.628 7.046 35.135 21.162 46.655 14.131 11.568 33.146 17.371 56.995 17.371 21.75 0 39.555-6.094 53.45-18.283 13.792-12.189 20.736-27.979 20.736-47.182v-130.216c0-21.594-6.803-38.397-20.336-50.774-13.651-12.243-32.374-18.387-56.224-18.387-22.947 0-41.379 6.339-55.139 19.008-13.763 12.717-20.643 29.718-20.643 51.114v130.695zM623.264 806.292h52.419v-193.275c0-5.952 1.194-10.23 3.382-12.912 2.099-2.688 5.725-4.032 10.653-4.032 3.853 0 8.723 1.776 14.682 5.283 5.853 3.594 11.261 8.109 16.144 13.581v191.355h52.499v-252.116h-52.499v27.93c-9.6-10.317-19.674-18.141-30.227-23.52-10.413-5.322-20.563-8.061-30.442-8.061-12.163 0-21.222 3.798-27.443 11.325-6.093 7.494-9.168 18.723-9.168 33.744v210.699zM778.912 250.797h-41.213v23.136c0 9.648 1.539 16.512 4.829 20.547 3.238 4.224 8.522 6.285 15.955 6.285 7.107 0 12.362-2.061 15.514-6.285 3.242-4.035 4.915-10.899 4.915-20.547v-23.136zM760.522 340.886c-20.934 0-37.85-6.243-51.053-18.723-13.194-12.48-19.814-28.752-19.814-48.528v-102.803c0-22.070 6.070-39.411 17.984-51.882 11.984-12.624 28.474-18.867 49.382-18.867 23.222 0 40.662 5.859 52.262 17.718 11.795 11.904 17.616 29.568 17.616 53.030v11.712h-47.978v-10.419c0-13.488-1.613-22.122-4.624-26.109-3.139-3.933-8.477-5.898-16.24-5.898-7.43 0-12.682 2.256-15.782 6.96-3.072 4.694-4.566 13.053-4.566 25.046v43.155h89.19v58.355c0 21.648-5.712 38.256-17.184 49.872-11.472 11.568-27.859 17.379-49.194 17.379zM181.227 371.363h54.354v-265.078h52.529v265.078h54.386v45.168h-161.269v-45.168zM503.84 591.552c7.107 0 12.746 1.926 16.938 5.763 4.214 3.885 6.314 9.264 6.314 15.933v137.364c0 5.473-2.144 9.94-6.4 13.345-4.301 3.46-9.891 5.088-16.851 5.088-6.4 0-11.584-1.628-15.632-5.088-3.949-3.405-5.962-7.872-5.962-13.345v-137.364c0-6.912 1.872-12.237 5.574-15.978 3.734-3.894 9.091-5.718 16.019-5.718zM449.498 161.274c-4.358-4.995-9.171-9.069-14.454-12.333-5.254-3.216-9.642-4.749-12.976-4.749-4.394 0-7.587 1.101-9.6 3.594-1.872 2.406-2.87 6.339-2.87 11.763v175.574h-46.618v-191.363c0-13.683 2.768-23.859 8.157-30.669 5.536-6.864 13.565-10.23 24.362-10.23 8.784 0 17.786 2.352 27.072 7.299 9.36 4.797 18.285 11.856 26.928 21.158v-25.091h46.598v228.896h-46.598v-173.85zM617.21 159.818c0-7.354-1.36-12.528-4.003-15.798-2.688-3.254-6.864-4.893-12.598-4.893-3.962 0-7.651 0.915-11.261 2.493-3.578 1.581-7.29 4.422-11.040 8.157v142.554c3.152 3.072 6.378 5.52 9.6 7.014 3.274 1.478 6.592 2.202 9.894 2.202 6.291 0 11.136-2.022 14.541-5.955 3.286-4.032 4.867-9.837 4.867-17.565v-118.208zM619.709 337.91c-7.245 0-14.394-1.77-21.549-5.418-6.944-3.603-13.651-8.982-19.949-15.942v99.981h-47.152v-310.246h47.152v17.558c6.086-7.101 12.794-12.227 19.901-15.546 7.133-3.357 15.242-4.992 24.426-4.992 13.779 0 24.403 4.323 31.683 12.966 7.312 8.682 10.97 21.114 10.97 37.29v126.944c0 18.816-3.885 33.075-11.725 42.816-7.77 9.792-18.998 14.589-33.757 14.589z" />
<glyph unicode="&#xe92f;" glyph-name="solana" d="M984.982 448.042c0-261.184-211.776-472.96-472.96-472.96s-472.96 211.776-472.96 472.96c0 261.182 211.776 472.958 472.96 472.958s472.96-211.776 472.96-472.958zM783.526 694.455c-1.536 1.024-3.328 1.536-5.184 1.536l-433.408 0.384c-2.624 0-5.248-0.576-7.68-1.664-2.432-1.024-4.608-2.624-6.4-4.544l-92.289-101.633c-1.216-1.408-2.048-3.072-2.368-4.928-0.256-1.792-0.064-3.648 0.704-5.376 0.768-1.664 1.984-3.136 3.52-4.096 1.536-1.024 3.328-1.6 5.184-1.6l433.409-0.32c2.624 0 5.248 0.576 7.68 1.6 2.432 1.088 4.608 2.624 6.4 4.608l92.288 101.633c1.216 1.344 2.048 3.072 2.368 4.864 0.256 1.856 0.064 3.712-0.704 5.376-0.768 1.728-1.984 3.136-3.52 4.16zM686.694 508.534c-2.432 1.088-5.056 1.6-7.68 1.6l-433.409-0.32c-1.856 0-3.648-0.576-5.184-1.536-1.6-1.024-2.816-2.496-3.52-4.16-0.768-1.664-1.024-3.584-0.704-5.376 0.32-1.856 1.152-3.52 2.368-4.864l92.289-101.696c1.792-1.984 3.968-3.52 6.4-4.608s5.056-1.6 7.68-1.6l433.408 0.32c1.856 0 3.648 0.576 5.184 1.536 1.536 1.024 2.752 2.496 3.52 4.16 0.704 1.664 0.96 3.584 0.704 5.376-0.32 1.856-1.152 3.52-2.368 4.864l-92.352 101.696c-1.728 1.984-3.904 3.52-6.336 4.608zM778.342 323.51l-433.472 0.32c-2.624 0-5.248-0.576-7.68-1.6-2.368-1.088-4.544-2.624-6.336-4.608l-92.289-101.632c-1.28-1.344-2.048-3.072-2.368-4.864-0.32-1.856-0.064-3.712 0.704-5.376 0.704-1.728 1.92-3.136 3.456-4.16 1.6-1.024 3.392-1.536 5.248-1.536l433.409-0.384c2.624 0 5.248 0.576 7.68 1.664 2.368 1.024 4.544 2.624 6.336 4.544l92.288 101.632c1.28 1.408 2.112 3.072 2.368 4.928 0.32 1.792 0.064 3.648-0.64 5.376-0.768 1.664-1.984 3.136-3.52 4.096-1.536 1.024-3.392 1.6-5.184 1.6z" />
<glyph unicode="&#xe930;" glyph-name="textarea_caret" d="M646.4 57.594h256l-0.032 256-255.968-256z" />
<glyph unicode="&#xe931;" glyph-name="three_points_h" d="M757.942 363.846c-40.909 0-74.070 33.168-74.070 74.077s33.162 74.077 74.070 74.077c40.909 0 74.074-33.168 74.074-74.077s-33.165-74.077-74.074-74.077zM266.075 363.846c-40.91 0-74.075 33.168-74.075 74.077s33.165 74.077 74.075 74.077c40.91 0 74.076-33.168 74.076-74.077s-33.165-74.077-74.076-74.077zM511.962 363.846c-40.912 0-74.077 33.168-74.077 74.077s33.165 74.077 74.077 74.077c40.909 0 74.074-33.168 74.074-74.077s-33.165-74.077-74.074-74.077z" />
<glyph unicode="&#xe932;" glyph-name="three_points_v" d="M596.154 693.925c0-40.91-33.168-74.076-74.077-74.076s-74.077 33.166-74.077 74.076c0 40.91 33.168 74.075 74.077 74.075s74.077-33.165 74.077-74.075zM596.154 202.077c0-40.912-33.168-74.077-74.077-74.077s-74.077 33.165-74.077 74.077c0 40.909 33.168 74.074 74.077 74.074s74.077-33.165 74.077-74.074zM596.154 448.026c0-40.909-33.168-74.074-74.077-74.074s-74.077 33.165-74.077 74.074c0 40.909 33.168 74.074 74.077 74.074s74.077-33.165 74.077-74.074z" />
<glyph unicode="&#xe933;" glyph-name="tick" d="M744.768 686.14l67.622-67.094-376.298-409.77-224.499 233.357 66.064 68.672 156.842-163.030 310.269 337.865z" />
<glyph unicode="&#xe934;" glyph-name="winner" d="M1023.098 428.474c-0.646 0.531-1.584 0.701-2.317 0.454-0.893-0.272-1.712-0.512-2.483-0.739l-0.378-0.109c-1.904-0.557-3.549-1.034-5.181-1.69-25.747-10.23-46.019-27.757-61.974-53.581-3.939-6.381-6.992-13.014-9.421-19.629 3.984 22.25 4.909 30.915 5.616 55.811 0.032 1.043 0.032 2.106 0.032 3.162 0 2.88 0 5.6 0.63 8.083 0.755 2.941 2.272 5.875 3.738 8.714 0.413 0.803 0.829 1.606 1.168 2.31 0.118 0.141 0.502 0.374 0.65 0.397 7.363 1.123 13.875 4.25 19.914 9.555 6.083 5.373 11.085 11.949 14.87 19.552 13.587 27.245 20.387 57.363 20.214 89.504-0.016 3.101-0.381 6.118-0.781 9.402-0.182 1.469-0.365 2.973-0.518 4.531-0.090 0.854-0.614 1.616-1.376 1.984-0.752 0.365-1.661 0.339-2.422-0.122-0.458-0.285-0.851-0.518-1.21-0.726-0.688-0.413-1.216-0.733-1.712-1.091-11.594-8.31-21.814-18.653-30.39-30.736-13.994-19.75-22.131-42.083-24.323-66.653-0.218 2.739-0.438 5.478-0.659 8.218l-0.077 0.992c-0.861 10.736-1.75 21.84-2.474 32.758-0.182 2.765-0.714 5.456-1.226 8.058-0.992 5.002-1.93 9.728-0.429 14.678 0.339 1.12 0.627 2.246 0.915 3.37 0.707 2.784 4.131 7.075 9.386 11.763l0.195 0.179c1.939 1.642 11.891 10.749 17.539 28.762 5.731 18.298 5.296 37.421 4.982 51.382l-0.010 0.374c-0.419 19.192-2.493 33.655-6.723 46.901-0.547 1.694-1.197 3.365-1.885 5.121-0.355 0.914-0.72 1.858-1.094 2.846-0.31 0.837-1.050 1.445-1.914 1.589l-0.422 0.038c-0.749 0-1.45-0.336-1.926-0.916l-4.109-5.008c-19.702-24.029-29.379-52.21-28.774-83.765 0.106-5.555 0.522-11.258 1.258-17.142-5.008 17.28-10.88 34.102-17.558 50.285-0.138 0.355-0.227 0.794-0.24 1.165l-0.045 2.214c-0.070 3.194-0.141 6.496-0.006 9.745 0.022 0.539 0.371 1.507 1.098 2.459 1.030 1.363 2.176 2.695 3.363 4.081 2.019 2.351 4.106 4.779 5.757 7.551 5.325 8.917 7.824 19.45 7.866 33.154 0.070 16.132-2.416 33.107-7.837 53.428-2.96 11.085-7.434 25.487-15.76 38.543-0.563 0.878-1.194 1.704-1.866 2.58-0.304 0.388-0.624 0.801-0.947 1.245-0.47 0.634-1.123 1.004-2.176 1.004-0.838-0.061-1.587-0.539-2.006-1.281-10.451-18.862-15.658-39.013-15.904-61.605-0.208-18.837 2.733-35.045 6.419-47.855-9.386 17.148-19.818 33.716-31.123 49.431l-0.259 0.357c-0.256 0.341-0.365 0.508-0.346 0.39-0.71 5.084-1.203 9.153-1.546 12.694 0.010 0.054 0.074 0.352 0.605 1.235 0.746 1.273 1.565 2.521 2.435 3.84 1.744 2.654 3.546 5.4 4.701 8.475 3.485 9.281 4.269 19.807 2.387 32.168-4.128 27.358-16.189 51.993-36.861 75.316-2.128 2.395-4.48 4.512-6.966 6.75l-0.688 0.624c-0.973 0.88-1.971 1.781-2.979 2.733-0.643 0.611-1.562 0.839-2.451 0.578-0.842-0.267-1.491-0.965-1.693-1.833l-0.451-1.981c-0.307-1.314-0.547-2.351-0.723-3.393-2.784-16.606-2.579-34.393 0.624-54.382 3.178-19.825 9.507-36.924 19.222-51.777-14.566 17.166-28.739 31.58-43.549 44.354-0.064 0.087-0.163 0.352-0.17 0.419 1.155 9.972-1.302 19.365-7.523 28.718-8.17 12.292-19.523 21.66-33.741 27.841-8.509 3.691-17.325 6.958-25.958 10.159-4.134 1.535-8.269 3.065-12.528 4.705-4.278 1.702-6.109 2.005-7.101 1.086-1.28-1.191-0.97-2.207-0.413-4.055l0.179-0.603c5.219-17.576 12.144-31.477 21.174-42.496 16.579-20.248 35.971-30.535 59.251-31.444 0.816-0.049 1.462-0.275 1.728-0.48 3.277-2.454 5.69-4.417 7.824-6.363 6.742-6.165 13.386-12.733 19.885-19.65-9.667 6.006-21.482 8.716-34.784 8.044-7.283-0.367-14.512-1.435-21.501-2.467l-0.266-0.041c-2.067-0.303-4.122-0.603-6.173-0.893-4.493-0.608-9.021-1.404-13.018-2.102-1.619-0.29-5.488-1.17-6.378-3.046-0.31-0.642-0.285-1.345 0.064-1.984 0.31-0.557 0.65-1.081 1.018-1.558 11.542-14.976 24.71-24.84 40.253-30.15 18.954-6.509 36.358-5.973 52 1.684 2.394 1.317 5.277 1.984 8.573 1.984 2.486 0 4.352-0.393 4.973-0.534 0.925-0.154 2.182-0.672 2.442-1.006 9.725-12.79 18.957-26.449 27.581-40.799-7.286 7.084-16.784 11.86-29.725 14.971-11.344 2.703-22.938 3.283-34.15 3.847l-3.754 0.19c-3.517 0.18-7.034 0.403-10.656 0.632l-6.070 0.375c-0.787 0-1.533-0.38-1.99-1.012-0.506-0.68-0.627-1.563-0.33-2.356 0.243-0.662 0.688-1.83 0.918-2.22 11.824-19.779 25.709-33.459 42.445-41.826 16.358-8.172 31.139-10.333 46.048-6.768 1.725 0.416 3.725 0.636 5.792 0.636 6.342 0 10.765-1.935 11.693-3.727 8.205-16.922 15.523-34.506 21.837-52.442-6.621 9.13-15.882 16.544-27.606 22.093-11.648 5.498-23.773 10.522-35.706 15.468-5.13 2.12-10.278 4.248-15.405 6.424-0.762 0.334-1.661 0.264-2.374-0.205-0.698-0.465-1.114-1.24-1.114-2.074 0-1.602 17.018-48.829 41.731-67.44 10.083-7.594 22.499-15.405 38.16-15.77 4.685-0.096 9.533-0.758 13.194-4.918 0.557-0.662 1.299-1.178 2.109-1.453 1.248-0.41 1.594-1.174 2.208-3.782 5.072-21.293 8.768-43.242 11.040-65.526-0.688 2.259-1.485 4.544-2.403 6.858-5.53 14.026-14.838 26.301-29.293 38.627-7.453 6.381-15.254 12.56-22.8 18.538l-0.362 0.282c-3.437 2.723-6.864 5.437-10.285 8.182-0.704 0.566-1.392 1.152-2.192 1.834l-2.131 1.827c-0.746 0.634-1.859 0.765-2.73 0.326-0.896-0.454-1.434-1.392-1.363-2.397 0.102-1.507 0.189-2.931 0.269-4.298l0.042-0.64c0.17-2.816 0.326-5.472 0.611-8.096 2.675-25.539 10.269-46.864 23.219-65.187 8.016-11.328 19.514-25.171 37.446-31.718 4.362-1.603 7.526-4.029 10.918-8.381 3.197-4.077 3.792-7.798 3.722-12.486-0.307-19.632-1.706-39.107-4.173-58.182-0.576 5.309-1.798 10.774-3.674 16.451-3.885 11.754-9.936 23.184-18.506 34.941-7.398 10.179-15.094 20.394-22.538 30.278l-0.496 0.659c-2.954 3.914-5.901 7.834-8.774 11.667-0.538 0.787-1.315 1.072-1.766 1.229-0.634 0.31-1.395 0.339-2.070 0.051-0.662-0.282-1.171-0.838-1.392-1.52l-0.090-0.269c-0.122-0.358-0.221-0.675-0.272-0.995-5.133-30.608-1.984-58.035 9.626-83.85 5.67-12.624 13.274-26.915 26.685-37.197 6.122-4.694 10.954-11.28 13.606-18.541 0.563-1.562 0.541-2.24 0.477-2.502-5.674-23.504-13.085-46.176-22.099-67.635 2.323 11.309 2.163 23.187-0.486 35.494-3.76 17.443-10.224 34.349-15.987 48.826l-1.728 4.333c-2.701 6.784-5.424 13.622-8.234 20.707-0.355 0.909-1.216 1.526-2.365 1.584-0.902 0-1.734-0.518-2.166-1.354l-0.906-1.706c-0.397-0.746-0.768-1.44-1.088-2.16-11.597-26.163-15.514-52.986-11.635-79.722 2.774-19.117 7.469-32.803 15.232-44.384 4.016-5.984 7.834-12.653 8.525-20.854 0.166-1.939 0.090-3.277-0.778-4.8-9.789-17.142-20.762-33.318-32.784-48.349 0.048 0.080 0.090 0.163 0.138 0.246 8.646 15.802 8.909 32.886 8.026 47.52-0.762 12.544-2.198 25.069-3.584 37.178l-0.080 0.701c-0.557 4.851-1.11 9.699-1.616 14.56-0.291 2.752-0.618 5.507-0.954 8.301l-0.445 3.786c-0.099 0.835-0.608 1.558-1.344 1.923-1.363 0.714-3.574-0.387-5.962-3.21-16.403-19.402-26.582-41.328-30.256-65.168-3.814-24.72-1.747-45.875 6.323-64.672 0.214-0.499 0.211-1.523 0.208-1.862l-0.435-10.816c-0.064-0.778-0.474-1.658-0.813-1.984-16.381-15.773-34.413-29.488-53.766-40.899 9.162 8.278 15.747 19.082 20.016 32.771 4.73 15.174 7.158 30.966 9.51 46.282l0.205 1.36c0.835 5.382 1.706 10.752 2.592 16.237l1.005 6.205c0.144 0.902-0.214 1.808-0.912 2.349-0.698 0.554-1.702 0.688-2.506 0.342l-0.874-0.362c-0.934-0.381-1.747-0.723-2.515-1.117-36.586-18.272-60.669-60.886-57.264-101.328 0.534-6.333-0.048-12.285-1.776-18.176-0.163-0.538-0.682-1.12-0.893-1.216-17.376-7.328-33.898-12.675-50.522-16.346-0.854-0.198-1.533-0.81-1.808-1.632-0.282-0.829-0.112-1.731 0.458-2.406 1.808-2.141 3.382-4.445 4.675-6.854 0.531-0.986 1.795-1.491 2.742-1.245 13.546 3.091 26.736 7.091 39.216 11.901 1.011 0.406 1.779 0.598 2.502 0.48 2.774-0.368 5.709-0.938 8.966-1.747 0.672-0.163 1.229-0.474 1.238-0.448 7.117-14.182 19.344-23.216 37.395-27.613 3.926-0.944 7.978-1.638 12.038-2.064 4.25-0.448 8.989-0.678 14.083-0.678 7.059 0 12.093 0.438 12.154 0.442 15.648 1.75 29.008 5.274 40.845 10.768 4.854 2.25 10.39 5.283 14.643 10.694 0.813 1.037 0.675 2.534-0.31 3.405-12.022 10.608-24.262 18.314-37.427 23.562-19.504 7.75-37.27 9.85-54.685 6.499-2.605-0.506-5.146-1.139-7.613-1.872 16.288 9.738 31.888 21.184 46.618 34.221 0.282 0.256 0.746 0.483 1.107 0.547 2.41 0.4 5.613 0.893 8.886 1.13 0.304 0 0.688-0.147 0.733-0.163 8.874-9.933 20.31-14.758 34.957-14.758 0.746 0 1.498 0.013 2.243 0.038 15.926 0.515 31.936 4.89 47.597 13.014 11.379 5.936 23.242 12.848 32.864 23.155 2.131 2.294 4.035 4.886 5.718 7.171l0.163 0.224c0.746 1.008 1.498 2.026 2.269 3.030 0.422 0.541 0.598 1.238 0.486 1.942-0.115 0.675-0.509 1.28-1.181 1.715-0.166 0.093-4.24 2.278-7.962 3.718-24.899 9.622-50.042 10.608-74.022 2.88-7.853-2.525-15.242-6.314-22.435-11.549 13.306 15.466 25.626 32.422 36.81 50.666 0.122 0.192 0.438 0.714 0.541 0.81 0.979 0.624 1.981 1.213 2.979 1.795 1.789 1.050 3.642 2.138 5.382 3.43 1.469 1.094 1.882 1.123 3.363 0.17 2.099-1.363 4.541-2.074 6.669-2.63 12.448-3.187 24.998-1.597 38.877 4.918 12.678 5.946 22.429 15.341 31.078 24.608 12.582 13.517 20.803 25.709 25.872 38.378 1.066 2.659 1.827 5.408 2.618 8.285 0.326 1.206 0.659 2.413 1.014 3.597 0.387 1.274-0.291 2.621-1.549 3.066l-1.043 0.080c-5.13 0-50.899-0.752-77.667-26.726-5.824-5.654-11.046-11.658-15.811-18.234 10.589 22.426 19.571 46.064 26.81 70.598l0.102 0.358c0.090 0.301 0.221 0.755 0.307 0.877l7.002 9.616c0.262 0.384 0.291 0.384 0.704 0.384 0.182 0 0.381-0.013 0.611-0.026l1.494-0.090c5.21-0.323 8.278-0.278 10.8 0.118 9.971 1.574 18.97 6.592 27.507 15.35 19.971 20.483 33.718 46.035 42.026 78.115 0.89 3.437 1.139 6.906 1.405 10.586 0.118 1.67 0.25 3.389 0.438 5.165 0.080 0.851-0.253 1.667-0.896 2.198zM345.494 55.523c-16.608 3.67-33.127 9.014-50.509 16.342-0.208 0.099-0.724 0.682-0.885 1.203-1.732 5.907-2.313 11.856-1.779 18.192 3.404 40.442-20.679 83.056-57.257 101.325-0.778 0.397-1.589 0.736-2.523 1.12l-0.868 0.358c-0.824 0.352-1.828 0.205-2.492-0.326-0.719-0.557-1.076-1.459-0.929-2.365l1.001-6.202c0.888-5.488 1.758-10.858 2.592-16.23l0.211-1.408c2.348-15.274 4.777-31.069 9.507-46.243 4.268-13.69 10.854-24.493 20.015-32.771-19.353 11.411-37.386 25.126-53.764 40.899-0.344 0.33-0.752 1.206-0.811 1.93l-0.439 10.826c-0.003 0.384-0.008 1.405 0.211 1.91 8.067 18.794 10.133 39.949 6.322 64.669-3.676 23.84-13.855 45.766-30.258 65.168-1.92 2.269-3.614 3.421-5.036 3.421-0.346 0-0.66-0.070-0.906-0.198-0.755-0.374-1.265-1.101-1.365-1.939l-0.439-3.776c-0.339-2.803-0.665-5.555-0.957-8.31-0.506-4.858-1.060-9.706-1.617-14.557l-0.079-0.701c-1.386-12.112-2.823-24.637-3.583-37.178-0.883-14.63-0.621-31.715 8.026-47.523 0.046-0.077 0.087-0.163 0.133-0.243-12.020 15.030-22.992 31.206-32.781 48.346-0.865 1.526-0.939 2.864-0.778 4.803 0.696 8.205 4.51 14.874 8.526 20.854 7.759 11.581 12.456 25.267 15.231 44.384 3.878 26.736-0.039 53.555-11.635 79.718-0.318 0.72-0.69 1.418-1.088 2.163l-0.906 1.709c-0.434 0.835-1.36 1.386-2.338 1.341-0.975-0.051-1.835-0.669-2.189-1.568-2.813-7.094-5.533-13.93-8.236-20.714l-1.727-4.336c-5.765-14.477-12.23-31.382-15.988-48.822-2.649-12.307-2.811-24.186-0.488-35.494-9.014 21.456-16.424 44.128-22.099 67.635-0.064 0.262-0.084 0.938 0.477 2.502 2.654 7.264 7.487 13.85 13.611 18.544 13.406 10.282 21.011 24.573 26.681 37.197 11.609 25.814 14.758 53.238 9.625 83.846-0.054 0.32-0.151 0.64-0.267 0.986l-0.092 0.278c-0.223 0.685-0.732 1.238-1.404 1.53-0.657 0.272-1.484 0.221-1.994-0.029-0.513-0.189-1.291-0.474-1.797-1.216-2.905-3.878-5.854-7.795-8.806-11.709l-0.495-0.662c-7.443-9.882-15.141-20.099-22.538-30.275-8.57-11.757-14.622-23.187-18.506-34.941-1.874-5.68-3.098-11.142-3.676-16.451-2.467 19.072-3.865 38.547-4.171 58.182-0.072 4.685 0.524 8.41 3.724 12.49 3.388 4.346 6.553 6.774 10.916 8.374 17.928 6.55 29.429 20.394 37.445 31.722 12.949 18.323 20.543 39.645 23.218 65.181 0.285 2.63 0.447 5.286 0.613 8.102l0.041 0.637c0.080 1.37 0.164 2.794 0.272 4.304 0.067 0.998-0.47 1.939-1.365 2.394-0.868 0.435-1.979 0.307-2.734-0.333l-2.128-1.821c-0.801-0.682-1.486-1.267-2.197-1.837-3.416-2.746-6.845-5.459-10.282-8.182l-0.359-0.285c-7.543-5.974-15.346-12.15-22.797-18.531-14.458-12.333-23.767-24.605-29.298-38.63-0.914-2.314-1.715-4.602-2.402-6.864 2.274 22.288 5.967 44.237 11.039 65.533 0.616 2.605 0.96 3.37 2.225 3.786 0.796 0.272 1.538 0.79 2.079 1.43 3.678 4.182 8.521 4.845 13.213 4.938 15.657 0.368 28.074 8.179 38.153 15.77 24.714 18.614 41.731 65.841 41.731 67.442 0 0.834-0.416 1.612-1.122 2.082-0.696 0.459-1.635 0.524-2.343 0.208-5.149-2.184-10.297-4.312-15.628-6.516-11.73-4.863-23.857-9.89-35.504-15.385-11.722-5.546-20.985-12.963-27.607-22.093 6.311 17.936 13.629 35.516 21.822 52.413 0.942 1.822 5.367 3.757 11.712 3.757 2.064 0 4.063-0.221 5.79-0.636 14.907-3.573 29.688-1.407 46.048 6.768 16.737 8.367 30.623 22.047 42.45 41.834 0.226 0.382 0.67 1.55 0.908 2.204 0.3 0.801 0.18 1.684-0.318 2.354-0.462 0.636-1.201 1.016-2.143 1.016-0.008 0 0.008 0 0 0l-5.929-0.372c-3.621-0.228-7.138-0.452-10.654-0.631l-3.755-0.19c-11.211-0.565-22.807-1.145-34.152-3.847-12.939-3.111-22.438-7.887-29.722-14.971 8.621 14.35 17.854 28.005 27.579 40.794 0.262 0.339 1.517 0.857 2.546 1.029 0.513 0.121 2.382 0.514 4.866 0.514 3.296 0 6.181-0.67 8.627-2.015 15.541-7.6 32.995-8.164 51.944-1.655 15.544 5.31 28.708 15.174 40.248 30.145 0.375 0.483 0.714 1.009 1.021 1.563 0.352 0.639 0.375 1.342 0.067 1.984-0.893 1.874-4.758 2.754-6.386 3.047-3.994 0.698-8.519 1.494-13.005 2.102-2.056 0.287-4.114 0.588-6.178 0.893l-0.264 0.041c-6.992 1.032-14.22 2.1-21.501 2.467-13.305 0.68-25.12-2.035-34.788-8.046 6.501 6.92 13.144 13.485 19.889 19.653 2.133 1.946 4.546 3.907 7.833 6.368 0.254 0.195 0.901 0.423 1.694 0.47 23.303 0.911 42.694 11.198 59.274 31.444 9.032 11.021 15.957 24.922 21.176 42.499l0.179 0.603c0.557 1.848 0.864 2.865-0.416 4.055-0.989 0.919-2.729 0.647-7.251-1.145-4.107-1.579-8.239-3.111-12.482-4.684-8.524-3.16-17.34-6.427-25.849-10.118-14.22-6.18-25.574-15.549-33.744-27.84-6.221-9.353-8.68-18.749-7.523-28.677-0.008-0.11-0.105-0.375-0.121-0.405-14.843-12.815-29.031-27.243-43.6-44.413 9.715 14.853 16.047 31.955 19.224 51.78 3.203 19.987 3.406 37.776 0.624 54.382-0.177 1.040-0.416 2.079-0.721 3.38l-0.454 2.004c-0.205 0.86-0.852 1.555-1.701 1.822-0.85 0.252-1.802 0.028-2.436-0.575-1.016-0.957-2.012-1.861-2.985-2.739l-0.685-0.619c-2.49-2.243-4.841-4.361-6.968-6.756-20.675-23.323-32.733-47.958-36.862-75.313-1.881-12.364-1.101-22.89 2.387-32.171 1.155-3.075 2.957-5.821 4.751-8.547 0.821-1.245 1.643-2.495 2.395-3.778 0.555-0.921 0.601-1.16 0.598-1.116-0.341-3.657-0.832-7.733-1.494-12.625-0.028-0.061-0.121-0.205-0.416-0.596l-0.239-0.331c-11.306-15.716-21.737-32.284-31.124-49.431 3.691 12.808 6.63 29.019 6.422 47.855-0.252 22.594-5.454 42.745-15.911 61.612-0.413 0.734-1.163 1.212-2.212 1.283-0.762 0-1.496-0.377-1.976-1.021-0.313-0.436-0.631-0.847-0.934-1.237-0.675-0.873-1.306-1.699-1.871-2.582-8.326-13.057-12.792-27.453-15.757-38.538-5.418-20.331-7.908-37.306-7.836-53.428 0.041-13.703 2.538-24.237 7.862-33.151 1.655-2.774 3.74-5.203 5.834-7.646 1.111-1.296 2.253-2.628 3.288-3.994 0.724-0.95 1.073-1.917 1.093-2.456 0.136-3.251 0.064-6.553-0.005-9.747l-0.049-2.205c-0.008-0.381-0.095-0.816-0.226-1.152-6.684-16.192-12.559-33.021-17.569-50.304 0.737 5.885 1.152 11.581 1.258 17.142 0.606 31.552-9.073 59.732-28.775 83.764l-4.107 5.003c-0.475 0.588-1.178 0.921-1.927 0.921l-0.411-0.036c-0.878-0.146-1.617-0.755-1.923-1.584-0.375-0.998-0.742-1.94-1.099-2.852-0.688-1.761-1.337-3.429-1.886-5.126-4.227-13.241-6.301-27.707-6.722-46.894l-0.008-0.374c-0.316-13.962-0.749-33.085 4.985-51.386 5.644-18.016 15.597-27.12 17.528-28.755l0.205-0.182c5.254-4.691 8.676-8.979 9.384-11.763 0.285-1.126 0.575-2.253 0.914-3.366 1.499-4.957 0.562-9.68-0.449-14.778-0.503-2.576-1.027-5.235-1.209-7.962-0.724-10.918-1.612-22.022-2.472-32.758l-0.077-0.995c-0.221-2.736-0.442-5.475-0.66-8.214-2.192 24.566-10.328 46.899-24.327 66.65-8.572 12.083-18.793 22.422-30.384 30.736-0.501 0.358-1.027 0.682-1.73 1.098-0.341 0.198-0.737 0.435-1.217 0.736-0.724 0.432-1.653 0.47-2.4 0.109-0.765-0.374-1.291-1.13-1.378-1.987-0.157-1.555-0.339-3.059-0.531-4.618-0.388-3.197-0.755-6.214-0.77-9.315-0.172-32.141 6.627-62.256 20.215-89.504 3.786-7.603 8.788-14.179 14.874-19.552 6.034-5.302 12.546-8.429 19.894-9.552 0.162-0.029 0.547-0.262 0.606-0.307 0.398-0.8 0.811-1.6 1.224-2.403 1.468-2.835 2.985-5.77 3.74-8.71 0.629-2.486 0.629-5.206 0.629-8.086 0-1.053 0-2.115 0.033-3.158 0.706-24.896 1.632-33.568 5.616-55.811-2.43 6.614-5.482 13.245-9.422 19.626-15.954 25.824-36.223 43.35-61.964 53.581-1.638 0.659-3.28 1.133-5.185 1.686l-0.38 0.115c-0.773 0.224-1.591 0.467-2.467 0.733-0.791 0.259-1.691 0.083-2.336-0.451-0.642-0.531-0.978-1.344-0.893-2.192 0.19-1.766 0.321-3.482 0.441-5.158 0.264-3.677 0.513-7.146 1.404-10.579 8.306-32.083 22.053-57.632 42.024-78.118 8.539-8.755 17.538-13.776 27.509-15.35 2.516-0.394 5.59-0.442 10.796-0.118l1.499 0.090c0.228 0.013 0.428 0.026 0.611 0.026 0.411 0 0.444 0 0.729-0.419l6.973-9.578c0.090-0.125 0.221-0.579 0.311-0.893l0.102-0.342c7.238-24.538 16.219-48.173 26.809-70.602-4.766 6.579-9.989 12.582-15.811 18.234-26.77 25.974-72.539 26.726-77.67 26.726l-0.639-0.006-0.403-0.074c-1.258-0.448-1.938-1.792-1.55-3.056 0.357-1.194 0.69-2.4 1.073-3.818 0.732-2.662 1.491-5.411 2.556-8.070 5.072-12.672 13.293-24.864 25.877-38.381 8.647-9.267 18.395-18.662 31.072-24.605 13.883-6.518 26.419-8.109 38.885-4.918 2.12 0.56 4.558 1.264 6.655 2.624 1.494 0.957 1.902 0.928 3.37-0.166 1.74-1.293 3.591-2.378 5.388-3.43 0.993-0.582 1.994-1.171 2.929-1.763 0.149-0.125 0.467-0.646 0.585-0.838 11.186-18.243 23.508-35.2 36.814-50.666-7.197 5.235-14.586 9.024-22.435 11.549-23.985 7.728-49.126 6.746-74.025-2.883-3.716-1.44-7.79-3.622-8.062-3.776-0.57-0.374-0.963-0.979-1.086-1.677-0.108-0.682 0.069-1.379 0.485-1.914 0.778-1.011 1.53-2.029 2.274-3.037l0.164-0.221c1.681-2.288 3.586-4.88 5.721-7.174 9.617-10.31 21.478-17.222 32.863-23.155 15.657-8.125 31.668-12.499 47.591-13.014 0.749-0.026 1.499-0.038 2.246-0.038 14.648 0 26.083 4.826 34.896 14.701 0.108 0.077 0.49 0.224 0.701 0.224 3.367-0.24 6.568-0.73 8.96-1.126 0.377-0.067 0.842-0.294 1.132-0.557 14.725-13.034 30.32-24.477 46.611-34.214-2.469 0.73-5.013 1.366-7.615 1.878-17.41 3.347-35.176 1.248-54.685-6.506-13.162-5.245-25.402-12.954-37.422-23.562-0.991-0.87-1.129-2.365-0.313-3.402 4.253-5.414 9.787-8.445 14.64-10.694 11.837-5.498 25.199-9.021 40.864-10.771 0.046-0.003 5.079-0.438 12.138-0.438 5.095 0 9.836 0.227 14.084 0.678 4.060 0.426 8.11 1.12 12.040 2.064 18.049 4.394 30.279 13.43 37.286 27.456 0.126 0.122 0.665 0.435 1.348 0.602 3.257 0.806 6.188 1.379 8.976 1.75 0.657 0.106 1.476-0.074 2.508-0.49 12.464-4.8 25.655-8.803 39.178-11.888 0.189-0.045 0.387-0.067 0.586-0.067 0.909 0 1.744 0.499 2.186 1.315 1.29 2.403 2.864 4.707 4.675 6.851 0.566 0.675 0.736 1.571 0.454 2.403-0.266 0.806-0.944 1.418-1.811 1.619zM633.747 386.762l103.13 100.525c3.494 3.408 4.758 8.512 3.245 13.155-1.507 4.646-5.523 8.035-10.358 8.736l-142.509 20.694-63.741 129.137c-2.163 4.381-6.624 7.153-11.507 7.153s-9.347-2.777-11.507-7.153l-63.718-129.137-142.532-20.694c-4.833-0.701-8.85-4.090-10.359-8.736-1.512-4.643-0.252-9.747 3.247-13.155l103.129-100.525-24.333-141.933c-0.826-4.813 1.152-9.68 5.104-12.55 3.949-2.87 9.184-3.251 13.514-0.976l127.462 67.002 127.459-67.002c1.875-0.989 3.926-1.475 5.968-1.475 2.659 0 5.306 0.829 7.542 2.451 3.952 2.867 5.933 7.738 5.104 12.55l-24.339 141.933z" />
<glyph unicode="&#xe935;" glyph-name="action-bookmark_24px1" d="M725.333 832h-426.667c-46.933 0-85.333-38.4-85.333-85.333v-682.667l298.667 128 298.667-128v682.667c0 46.933-38.4 85.333-85.333 85.333z" />
<glyph unicode="&#xe936;" glyph-name="action-bookmark_border_24px1" d="M725.333 832h-426.667c-46.933 0-85.333-38.4-85.333-85.333v-682.667l298.667 128 298.667-128v682.667c0 46.933-38.4 85.333-85.333 85.333zM725.333 192l-213.333 93.013-213.333-93.013v554.667h426.667v-554.667z" />
<glyph unicode="&#xe937;" glyph-name="action-build_24px-copy1" d="M853.333 576h-682.667v-85.333h682.667v85.333zM170.667 320h682.667v85.333h-682.667v-85.333z" />
<glyph unicode="&#xe938;" glyph-name="action-build_24px1" d="M515.84 835.842c-85.76 85.76-214.187 103.253-317.44 52.907l185.173-185.173-128-128-185.173 185.173c-49.92-103.68-32.427-231.255 53.333-317.015 79.36-79.36 195.413-100.267 293.973-63.147l388.693-388.693c16.64-16.64 43.52-16.64 60.16 0l98.133 98.133c16.64 16.64 16.64 43.52 0 60.16l-386.987 387.415c39.253 99.84 18.773 217.6-61.867 298.24z" />
<glyph unicode="&#xe939;" glyph-name="action-cached_24px1" d="M810.667 618.667l-170.667-170.667h128c0-141.227-114.773-256-256-256-43.093 0-84.053 10.667-119.467 29.867l-62.293-62.293c52.48-33.28 114.773-52.907 181.76-52.907 188.587 0 341.333 152.747 341.333 341.333h128l-170.667 170.667zM256 448c0 141.227 114.773 256 256 256 43.093 0 84.053-10.667 119.467-29.867l62.293 62.293c-52.48 33.28-114.773 52.907-181.76 52.907-188.587 0-341.333-152.747-341.333-341.333h-128l170.667-170.667 170.667 170.667h-128z" />
<glyph unicode="&#xe93a;" glyph-name="action-check_circle_24px-copy1" d="M383.996 268.796l-179.2 179.2-59.733-59.733 238.933-238.933 512 512-59.733 59.733-452.267-452.267z" />
<glyph unicode="&#xe93b;" glyph-name="action-check_circle_24px1" d="M512 874.667c-235.52 0-426.667-191.147-426.667-426.667s191.147-426.667 426.667-426.667c235.52 0 426.667 191.147 426.667 426.667s-191.147 426.667-426.667 426.667zM426.667 234.667l-213.333 213.333 60.16 60.16 153.173-152.747 323.84 323.84 60.16-60.587-384-384z" />
<glyph unicode="&#xe93c;" glyph-name="action-check_circle_outline_24px1" d="M707.84 636.587l-281.173-281.173-153.173 152.747-60.16-60.16 213.333-213.333 341.333 341.333-60.16 60.587zM512 874.667c-235.52 0-426.667-191.147-426.667-426.667s191.147-426.667 426.667-426.667c235.52 0 426.667 191.147 426.667 426.667s-191.147 426.667-426.667 426.667zM512 106.667c-188.587 0-341.333 152.747-341.333 341.333s152.747 341.333 341.333 341.333c188.587 0 341.333-152.747 341.333-341.333s-152.747-341.333-341.333-341.333z" />
<glyph unicode="&#xe93d;" glyph-name="action-favorite1" d="M512 49.067l-61.867 56.32c-219.733 199.253-364.8 330.667-364.8 491.947 0 131.413 103.253 234.667 234.667 234.667 74.24 0 145.493-34.56 192-89.173 46.507 54.613 117.76 89.173 192 89.173 131.413 0 234.667-103.253 234.667-234.667 0-161.28-145.067-292.693-364.8-492.373l-61.867-55.893z" />
<glyph unicode="&#xe93e;" glyph-name="action-search_24px1" d="M661.333 362.667h-33.707l-11.947 11.52c41.813 48.64 66.987 111.787 66.987 180.48 0 153.173-124.16 277.333-277.333 277.333s-277.333-124.16-277.333-277.333c0-153.173 124.16-277.333 277.333-277.333 68.693 0 131.84 25.173 180.48 66.987l11.52-11.947v-33.707l213.333-212.907 63.573 63.573-212.907 213.333zM405.333 362.667c-106.24 0-192 85.76-192 192s85.76 192 192 192c106.24 0 192-85.76 192-192s-85.76-192-192-192z" />
<glyph unicode="&#xe93f;" glyph-name="action-settings1" d="M815.915 408.068c1.536 12.8 2.56 26.112 2.56 39.936s-1.024 27.136-3.072 39.936l86.528 67.584c7.68 6.144 9.728 17.408 5.12 26.112l-81.92 141.824c-5.12 9.216-15.872 12.288-25.088 9.216l-101.888-40.96c-21.504 16.384-44.032 29.696-69.12 39.936l-15.36 108.544c-1.536 10.24-10.24 17.408-20.48 17.408h-163.84c-10.239 0-18.431-7.168-19.967-17.408l-15.36-108.544c-25.088-10.24-48.128-24.064-69.12-39.936l-101.888 40.96c-9.216 3.584-19.968 0-25.088-9.216l-81.92-141.824c-5.12-9.216-3.072-19.968 5.12-26.112l86.528-67.584c-2.048-12.8-3.584-26.624-3.584-39.936s1.024-27.136 3.072-39.936l-86.528-67.584c-7.68-6.144-9.728-17.408-5.12-26.112l81.92-141.824c5.12-9.216 15.872-12.288 25.088-9.216l101.888 40.96c21.504-16.384 44.032-29.696 69.12-39.936l15.36-108.544c2.048-10.24 10.24-17.408 20.479-17.408h163.84c10.24 0 18.944 7.168 19.968 17.408l15.36 108.544c25.088 10.24 48.128 24.064 69.12 39.936l101.888-40.96c9.216-3.584 19.968 0 25.088 9.216l81.92 141.824c5.12 9.216 3.072 19.968-5.12 26.112l-85.504 67.584zM511.275 294.404c-84.48 0-153.599 69.12-153.599 153.6s69.119 153.6 153.599 153.6c84.48 0 153.6-69.12 153.6-153.6s-69.12-153.6-153.6-153.6z" />
<glyph unicode="&#xe940;" glyph-name="action-visibility1" d="M512 746.667c-213.333 0-395.52-132.693-469.333-320 73.813-187.307 256-320 469.333-320s395.52 132.693 469.333 320c-73.813 187.307-256 320-469.333 320zM512 213.333c-117.76 0-213.333 95.573-213.333 213.333s95.573 213.333 213.333 213.333c117.76 0 213.333-95.573 213.333-213.333s-95.573-213.333-213.333-213.333zM512 554.667c-70.827 0-128-57.173-128-128s57.173-128 128-128c70.827 0 128 57.173 128 128s-57.173 128-128 128z" />
<glyph unicode="&#xe941;" glyph-name="alert-error_24px1" d="M512 874.667c-235.52 0-426.667-191.147-426.667-426.667s191.147-426.667 426.667-426.667c235.52 0 426.667 191.147 426.667 426.667s-191.147 426.667-426.667 426.667zM554.667 234.667h-85.333v85.333h85.333v-85.333zM554.667 405.333h-85.333v256h85.333v-256z" />
<glyph unicode="&#xe942;" glyph-name="alert-error_outline_24px1" d="M469.333 320h85.333v-85.333h-85.333v85.333zM469.333 661.333h85.333v-256h-85.333v256zM511.573 874.667c-235.52 0-426.24-191.147-426.24-426.667s190.72-426.667 426.24-426.667c235.947 0 427.093 191.147 427.093 426.667s-191.147 426.667-427.093 426.667zM512 106.667c-188.587 0-341.333 152.747-341.333 341.333s152.747 341.333 341.333 341.333c188.587 0 341.333-152.747 341.333-341.333s-152.747-341.333-341.333-341.333z" />
<glyph unicode="&#xe943;" glyph-name="alert-notification_important_24px1" d="M512-21.333c46.933 0 84.907 37.973 84.907 84.907h-169.813c0-46.933 37.973-84.907 84.907-84.907zM810.667 234.667v256c0 142.933-100.693 262.4-234.667 291.413v49.92c0 35.413-28.587 64-64 64s-64-28.587-64-64v-49.92c-133.973-29.013-234.667-148.48-234.667-291.413v-256l-85.333-85.333v-42.667h768v42.667l-85.333 85.333zM554.667 277.333h-85.333v85.333h85.333v-85.333zM554.667 448h-85.333v170.667h85.333v-170.667z" />
<glyph unicode="&#xe944;" glyph-name="alert-triangle1" d="M512 704.427l321.28-555.093h-642.56l321.28 555.093zM512 874.667l-469.333-810.667h938.667l-469.333 810.667zM554.667 277.333h-85.333v-85.333h85.333v85.333zM554.667 533.333h-85.333v-170.667h85.333v170.667z" />
<glyph unicode="&#xe945;" glyph-name="attach1" d="M704 704v-490.667c0-94.293-76.373-170.667-170.667-170.667s-170.667 76.373-170.667 170.667v533.333c0 58.88 47.787 106.667 106.667 106.667s106.667-47.787 106.667-106.667v-448c0-23.467-19.2-42.667-42.667-42.667s-42.667 19.2-42.667 42.667v405.333h-64v-405.333c0-58.88 47.787-106.667 106.667-106.667s106.667 47.787 106.667 106.667v448c0 94.293-76.373 170.667-170.667 170.667s-170.667-76.373-170.667-170.667v-533.333c0-129.707 104.96-234.667 234.667-234.667s234.667 104.96 234.667 234.667v490.667h-64z" />
<glyph unicode="&#xe946;" glyph-name="Calendar-line1" d="M810.667 832h-42.667v85.333h-85.333v-85.333h-341.333v85.333h-85.333v-85.333h-42.667c-46.933 0-85.333-38.4-85.333-85.333v-597.333c0-46.933 38.4-85.333 85.333-85.333h597.333c46.933 0 85.333 38.4 85.333 85.333v597.333c0 46.933-38.4 85.333-85.333 85.333zM810.667 149.333h-597.333v426.667h597.333v-426.667zM213.333 661.333v85.333h597.333v-85.333h-597.333zM298.667 490.667h426.667v-85.333h-426.667v85.333zM298.667 320h298.667v-85.333h-298.667v85.333z" />
<glyph unicode="&#xe947;" glyph-name="Checktick1" d="M853.333 448c0-90.526-35.964-177.348-99.972-241.361-64.013-64.009-150.835-99.972-241.361-99.972-90.527 0-177.347 35.964-241.359 99.972-64.013 64.013-99.974 150.835-99.974 241.361 0 90.527 35.962 177.347 99.974 241.359s150.832 99.974 241.359 99.974c32.427 0 64-4.693 93.867-13.227l66.987 66.987c-49.493 20.48-103.68 31.573-160.853 31.573-56.030 0-111.513-11.036-163.278-32.478s-98.801-52.87-138.421-92.49c-80.015-80.016-124.968-188.54-124.968-301.699 0-113.161 44.952-221.683 124.968-301.7 39.62-39.62 86.655-71.044 138.421-92.489 51.765-21.44 107.248-32.478 163.278-32.478 113.161 0 221.683 44.954 301.7 124.966 80.013 80.017 124.966 188.54 124.966 301.7zM337.493 529.92l-60.16-60.587 192-192 426.667 426.667-60.16 60.587-366.507-366.507-131.84 131.84z" />
<glyph unicode="&#xe948;" glyph-name="content-add_24px1" d="M810.667 405.333h-256v-256h-85.333v256h-256v85.333h256v256h85.333v-256h256v-85.333z" />
<glyph unicode="&#xe949;" glyph-name="content-copy_24px1" d="M682.667 917.333h-512c-46.933 0-85.333-38.4-85.333-85.333v-597.333h85.333v597.333h512v85.333zM810.667 746.667h-469.333c-46.933 0-85.333-38.4-85.333-85.333v-597.333c0-46.933 38.4-85.333 85.333-85.333h469.333c46.933 0 85.333 38.4 85.333 85.333v597.333c0 46.933-38.4 85.333-85.333 85.333zM810.667 64h-469.333v597.333h469.333v-597.333z" />
<glyph unicode="&#xe94a;" glyph-name="content-create_24px1" d="M128 223.996v-160h160l471.893 471.895-160 160-471.893-471.895zM883.627 659.624c16.64 16.64 16.64 43.52 0 60.16l-99.84 99.84c-16.64 16.64-43.52 16.64-60.16 0l-78.080-78.080 160-160 78.080 78.080z" />
<glyph unicode="&#xe94b;" glyph-name="content-filter_list_24px1" d="M426.667 192h170.667v85.333h-170.667v-85.333zM128 704v-85.333h768v85.333h-768zM256 405.333h512v85.333h-512v-85.333z" />
<glyph unicode="&#xe94c;" glyph-name="content-link1" d="M166.4 448c0 72.96 59.307 132.267 132.267 132.267h170.667v81.067h-170.667c-117.76 0-213.333-95.573-213.333-213.333s95.573-213.333 213.333-213.333h170.667v81.067h-170.667c-72.96 0-132.267 59.307-132.267 132.267zM341.333 405.333h341.333v85.333h-341.333v-85.333zM725.333 661.333h-170.667v-81.067h170.667c72.96 0 132.267-59.307 132.267-132.267s-59.307-132.267-132.267-132.267h-170.667v-81.067h170.667c117.76 0 213.333 95.573 213.333 213.333s-95.573 213.333-213.333 213.333z" />
<glyph unicode="&#xe94d;" glyph-name="date1" d="M725.333 448h-213.333v-213.333h213.333v213.333zM682.667 917.333v-85.333h-341.333v85.333h-85.333v-85.333h-42.667c-47.36 0-84.907-38.4-84.907-85.333l-0.427-597.333c0-46.933 37.973-85.333 85.333-85.333h597.333c46.933 0 85.333 38.4 85.333 85.333v597.333c0 46.933-38.4 85.333-85.333 85.333h-42.667v85.333h-85.333zM810.667 149.333h-597.333v469.333h597.333v-469.333z" />
<glyph unicode="&#xe94e;" glyph-name="delete1" d="M682.667 576v-426.667h-341.333v426.667h341.333zM618.667 832h-213.333l-42.667-42.667h-149.333v-85.333h597.333v85.333h-149.333l-42.667 42.667zM768 661.333h-512v-512c0-46.933 38.4-85.333 85.333-85.333h341.333c46.933 0 85.333 38.4 85.333 85.333v512z" />
<glyph unicode="&#xe94f;" glyph-name="EditCalendar1" d="M512 21.333h-298.667c-47.36 0-85.333 38.4-85.333 85.333l0.427 597.333c0 46.933 37.547 85.333 84.907 85.333h42.667v85.333h85.333v-85.333h341.333v85.333h85.333v-85.333h42.667c46.933 0 85.333-38.4 85.333-85.333v-256h-85.333v85.333h-597.333v-426.667h298.667v-85.333zM944.213 235.093l30.293 30.293c16.64 16.64 16.64 43.52 0 60.16l-30.293 30.293c-16.64 16.64-43.52 16.64-60.16 0l-30.293-30.293 90.453-90.453zM913.92 204.8l-226.133-226.133h-90.453v90.453l226.133 226.133 90.453-90.453z" />
<glyph unicode="&#xe950;" glyph-name="Info1" d="M469.333 661.333h85.333v-85.333h-85.333v85.333zM469.333 490.667h85.333v-256h-85.333v256zM512 874.667c-235.52 0-426.667-191.147-426.667-426.667s191.147-426.667 426.667-426.667c235.52 0 426.667 191.147 426.667 426.667s-191.147 426.667-426.667 426.667zM512 106.667c-188.16 0-341.333 153.173-341.333 341.333s153.173 341.333 341.333 341.333c188.16 0 341.333-153.173 341.333-341.333s-153.173-341.333-341.333-341.333z" />
<glyph unicode="&#xe951;" glyph-name="maps-360_24px1" d="M512 661.333c-235.52 0-426.667-95.573-426.667-213.333 0-95.573 125.44-176.213 298.667-203.52v-137.813l170.667 170.667-170.667 170.667v-116.48c-134.4 23.893-213.333 81.067-213.333 116.48 0 45.227 129.707 128 341.333 128s341.333-82.773 341.333-128c0-31.147-62.293-80.64-170.667-107.947v-87.467c150.613 32.853 256 107.947 256 195.413 0 117.76-191.147 213.333-426.667 213.333z" />
<glyph unicode="&#xe952;" glyph-name="maps-place_24px1" d="M512 874.667c-165.12 0-298.667-133.547-298.667-298.667 0-224 298.667-554.667 298.667-554.667s298.667 330.667 298.667 554.667c0 165.12-133.547 298.667-298.667 298.667zM512 469.333c-58.88 0-106.667 47.787-106.667 106.667s47.787 106.667 106.667 106.667c58.88 0 106.667-47.787 106.667-106.667s-47.787-106.667-106.667-106.667z" />
<glyph unicode="&#xe953;" glyph-name="navigation-apps_24px1" d="M170.667 618.667h170.667v170.667h-170.667v-170.667zM426.667 106.667h170.667v170.667h-170.667v-170.667zM170.667 106.667h170.667v170.667h-170.667v-170.667zM170.667 362.667h170.667v170.667h-170.667v-170.667zM426.667 362.667h170.667v170.667h-170.667v-170.667zM682.667 789.333v-170.667h170.667v170.667h-170.667zM426.667 618.667h170.667v170.667h-170.667v-170.667zM682.667 362.667h170.667v170.667h-170.667v-170.667zM682.667 106.667h170.667v170.667h-170.667v-170.667z" />
<glyph unicode="&#xe954;" glyph-name="navigation-arrow_drop_down_24px1" d="M298.667 533.333l213.333-213.333 213.333 213.333h-426.667z" />
<glyph unicode="&#xe955;" glyph-name="navigation-arrow_drop_down_circle_24px1" d="M512 874.667c-235.52 0-426.667-191.147-426.667-426.667s191.147-426.667 426.667-426.667c235.52 0 426.667 191.147 426.667 426.667s-191.147 426.667-426.667 426.667zM512 320l-170.667 170.667h341.333l-170.667-170.667z" />
<glyph unicode="&#xe956;" glyph-name="navigation-arrow_drop_up_24px1" d="M298.667 362.667l213.333 213.333 213.333-213.333h-426.667z" />
<glyph unicode="&#xe957;" glyph-name="navigation-arrow_left_24px1" d="M597.333 661.333l-213.333-213.333 213.333-213.333v426.667z" />
<glyph unicode="&#xe958;" glyph-name="navigation-arrow_right_24px1" d="M426.667 661.333l213.333-213.333-213.333-213.333v426.667z" />
<glyph unicode="&#xe959;" glyph-name="navigation-chevron_left_24px1" d="M657.493 643.84l-60.16 60.16-256-256 256-256 60.16 60.16-195.413 195.84 195.413 195.84z" />
<glyph unicode="&#xe95a;" glyph-name="navigation-chevron_right_24px1" d="M426.671 704l-60.16-60.16 195.414-195.84-195.414-195.84 60.16-60.16 256 256-256 256z" />
<glyph unicode="&#xe95b;" glyph-name="navigation-close_24px-copy1" d="M512 874.667c-235.947 0-426.667-190.72-426.667-426.667s190.72-426.667 426.667-426.667c235.947 0 426.667 190.72 426.667 426.667s-190.72 426.667-426.667 426.667zM725.333 294.827l-60.16-60.16-153.173 153.173-153.173-153.173-60.16 60.16 153.173 153.173-153.173 153.173 60.16 60.16 153.173-153.173 153.173 153.173 60.16-60.16-153.173-153.173 153.173-153.173z" />
<glyph unicode="&#xe95c;" glyph-name="navigation-close_24px-mini1" d="M512 789.333c-188.757 0-341.333-152.576-341.333-341.333s152.576-341.333 341.333-341.333c188.757 0 341.333 152.576 341.333 341.333s-152.576 341.333-341.333 341.333zM682.667 325.461l-48.128-48.128-122.539 122.539-122.539-122.539-48.128 48.128 122.539 122.539-122.539 122.539 48.128 48.128 122.539-122.539 122.539 122.539 48.128-48.128-122.539-122.539 122.539-122.539z" />
<glyph unicode="&#xe95d;" glyph-name="navigation-close_24px1" d="M810.667 686.507l-60.16 60.16-238.507-238.507-238.507 238.507-60.16-60.16 238.507-238.507-238.507-238.507 60.16-60.16 238.507 238.507 238.507-238.507 60.16 60.16-238.507 238.507 238.507 238.507z" />
<glyph unicode="&#xe95e;" glyph-name="navigation-expand_less_24px1" d="M512 618.667l-256-256 60.16-60.16 195.84 195.413 195.84-195.413 60.16 60.16-256 256z" />
<glyph unicode="&#xe95f;" glyph-name="navigation-expand_more_24px1" d="M707.84 593.5l-195.84-195.412-195.84 195.412-60.16-60.16 256-255.998 256 255.998-60.16 60.16z" />
<glyph unicode="&#xe960;" glyph-name="navigation-fullscreen_24px1" d="M298.667 362.667h-85.333v-213.333h213.333v85.333h-128v128zM213.333 533.333h85.333v128h128v85.333h-213.333v-213.333zM725.333 234.667h-128v-85.333h213.333v213.333h-85.333v-128zM597.333 746.667v-85.333h128v-128h85.333v213.333h-213.333z" />
<glyph unicode="&#xe961;" glyph-name="navigation-fullscreen_exit_24px1" d="M213.333 277.333h128v-128h85.333v213.333h-213.333v-85.333zM341.333 618.667h-128v-85.333h213.333v213.333h-85.333v-128zM597.333 149.333h85.333v128h128v85.333h-213.333v-213.333zM682.667 618.667v128h-85.333v-213.333h213.333v85.333h-128z" />
<glyph unicode="&#xe962;" glyph-name="navigation-menu_24px1" d="M128 192h768v85.333h-768v-85.333zM128 405.333h768v85.333h-768v-85.333zM128 704v-85.333h768v85.333h-768z" />
<glyph unicode="&#xe963;" glyph-name="navigation-more_horiz_24px1" d="M256 533.333c-46.933 0-85.333-38.4-85.333-85.333s38.4-85.333 85.333-85.333c46.933 0 85.333 38.4 85.333 85.333s-38.4 85.333-85.333 85.333zM768 533.333c-46.933 0-85.333-38.4-85.333-85.333s38.4-85.333 85.333-85.333c46.933 0 85.333 38.4 85.333 85.333s-38.4 85.333-85.333 85.333zM512 533.333c-46.933 0-85.333-38.4-85.333-85.333s38.4-85.333 85.333-85.333c46.933 0 85.333 38.4 85.333 85.333s-38.4 85.333-85.333 85.333z" />
<glyph unicode="&#xe964;" glyph-name="navigation-more_vert_24px1" d="M512 618.667c46.933 0 85.333 38.4 85.333 85.333s-38.4 85.333-85.333 85.333c-46.933 0-85.333-38.4-85.333-85.333s38.4-85.333 85.333-85.333zM512 533.333c-46.933 0-85.333-38.4-85.333-85.333s38.4-85.333 85.333-85.333c46.933 0 85.333 38.4 85.333 85.333s-38.4 85.333-85.333 85.333zM512 277.333c-46.933 0-85.333-38.4-85.333-85.333s38.4-85.333 85.333-85.333c46.933 0 85.333 38.4 85.333 85.333s-38.4 85.333-85.333 85.333z" />
<glyph unicode="&#xe965;" glyph-name="social-notifications_24px1" d="M512 21.333c46.933 0 85.333 38.4 85.333 85.333h-170.667c0-46.933 37.973-85.333 85.333-85.333zM768 277.333v213.333c0 130.987-69.973 240.64-192 269.653v29.013c0 35.413-28.587 64-64 64s-64-28.587-64-64v-29.013c-122.453-29.013-192-138.24-192-269.653v-213.333l-85.333-85.333v-42.667h682.667v42.667l-85.333 85.333z" />
<glyph unicode="&#xe966;" glyph-name="social-notifications_none_24px1" d="M512 21.333c46.933 0 85.333 38.4 85.333 85.333h-170.667c0-46.933 38.4-85.333 85.333-85.333zM768 277.333v213.333c0 130.987-69.547 240.64-192 269.653v29.013c0 35.413-28.587 64-64 64s-64-28.587-64-64v-29.013c-122.027-29.013-192-138.24-192-269.653v-213.333l-85.333-85.333v-42.667h682.667v42.667l-85.333 85.333zM682.667 234.667h-341.333v256c0 105.813 64.427 192 170.667 192s170.667-86.187 170.667-192v-256z" />
<glyph unicode="&#xe967;" glyph-name="social-share_24px-copy1" d="M768 273.92c-32.427 0-61.44-12.8-83.627-32.853l-304.213 177.067c2.133 9.813 3.84 19.627 3.84 29.867s-1.707 20.053-3.84 29.867l300.8 175.36c23.040-21.333 53.333-34.56 87.040-34.56 70.827 0 128 57.173 128 128s-57.173 128-128 128c-70.827 0-128-57.173-128-128 0-10.24 1.707-20.053 3.84-29.867l-300.8-175.36c-23.040 21.333-53.333 34.56-87.040 34.56-70.827 0-128-57.173-128-128s57.173-128 128-128c33.707 0 64 13.227 87.040 34.56l303.787-177.493c-2.133-8.96-3.413-18.347-3.413-27.733 0-68.693 55.893-124.587 124.587-124.587s124.587 55.893 124.587 124.587c0 68.693-55.893 124.587-124.587 124.587z" />
<glyph unicode="&#xe968;" glyph-name="toggle-check_box_24px1" d="M810.667 832h-597.333c-47.36 0-85.333-38.4-85.333-85.333v-597.333c0-46.933 37.973-85.333 85.333-85.333h597.333c47.36 0 85.333 38.4 85.333 85.333v597.333c0 46.933-37.973 85.333-85.333 85.333zM426.667 234.667l-213.333 213.333 60.16 60.16 153.173-152.747 323.84 323.84 60.16-60.587-384-384z" />
<glyph unicode="&#xe969;" glyph-name="toggle-check_box_off_24px1" d="M810.667 746.667v-597.333h-597.333v597.333h597.333zM810.667 832h-597.333c-46.933 0-85.333-38.4-85.333-85.333v-597.333c0-46.933 38.4-85.333 85.333-85.333h597.333c46.933 0 85.333 38.4 85.333 85.333v597.333c0 46.933-38.4 85.333-85.333 85.333z" />
<glyph unicode="&#xe96a;" glyph-name="toggle-indeterminate_check_box_24px1" d="M810.667 832h-597.333c-46.933 0-85.333-38.4-85.333-85.333v-597.333c0-46.933 38.4-85.333 85.333-85.333h597.333c46.933 0 85.333 38.4 85.333 85.333v597.333c0 46.933-38.4 85.333-85.333 85.333zM725.333 405.333h-426.667v85.333h426.667v-85.333z" />
<glyph unicode="&#xe96b;" glyph-name="toggle-radio_button_checked_24px1" d="M512 874.667c-235.52 0-426.667-191.147-426.667-426.667s191.147-426.667 426.667-426.667c235.52 0 426.667 191.147 426.667 426.667s-191.147 426.667-426.667 426.667zM512 106.667c-188.587 0-341.333 152.747-341.333 341.333s152.747 341.333 341.333 341.333c188.587 0 341.333-152.747 341.333-341.333s-152.747-341.333-341.333-341.333zM512 234.667c117.82 0 213.333 95.514 213.333 213.333s-95.514 213.333-213.333 213.333c-117.821 0-213.333-95.513-213.333-213.333s95.513-213.333 213.333-213.333z" />
<glyph unicode="&#xe96c;" glyph-name="toggle-radio_button_unchecked_24px1" d="M512 874.667c-235.52 0-426.667-191.147-426.667-426.667s191.147-426.667 426.667-426.667c235.52 0 426.667 191.147 426.667 426.667s-191.147 426.667-426.667 426.667zM512 106.667c-188.587 0-341.333 152.747-341.333 341.333s152.747 341.333 341.333 341.333c188.587 0 341.333-152.747 341.333-341.333s-152.747-341.333-341.333-341.333z" />
<glyph unicode="&#xe96d;" glyph-name="toggle-star_24px1" d="M512 223.147l263.68-159.147-69.973 299.947 232.96 201.813-306.773 26.027-119.893 282.88-119.893-282.88-306.773-26.027 232.96-201.813-69.973-299.947 263.68 159.147z" />
<glyph unicode="&#xe96e;" glyph-name="toggle-star_border_24px1" d="M938.667 565.76l-306.773 26.453-119.893 282.453-119.893-282.88-306.773-26.027 232.96-201.813-69.973-299.947 263.68 159.147 263.68-159.147-69.547 299.947 232.533 201.813zM512 302.933l-160.427-96.853 42.667 182.613-141.653 122.88 186.88 16.213 72.533 171.947 72.96-172.373 186.88-16.213-141.653-122.88 42.667-182.613-160.853 97.28z" />
<glyph unicode="&#xe96f;" glyph-name="toggle-star_half_24px1" d="M938.667 565.76l-306.773 26.453-119.893 282.453-119.893-282.88-306.773-26.027 232.96-201.813-69.973-299.947 263.68 159.147 263.68-159.147-69.547 299.947 232.533 201.813zM512 302.933v396.8l72.96-172.373 186.88-16.213-141.653-122.88 42.667-182.613-160.853 97.28z" />
<glyph unicode="&#xe970;" glyph-name="upload-cloud1" d="M825.6 531.627c-29.013 147.2-158.293 257.707-313.6 257.707-123.307 0-230.4-69.973-283.733-172.373-128.427-13.653-228.267-122.453-228.267-254.293 0-141.227 114.773-256 256-256h554.667c117.76 0 213.333 95.573 213.333 213.333 0 112.64-87.467 203.947-198.4 211.627zM597.333 405.333v-170.667h-170.667v170.667h-128l213.333 213.333 213.333-213.333h-128z" />
<glyph unicode="&#xe971;" glyph-name="academic-cap1" d="M532.176 853.499c-6.374 2.732-13.238 4.141-20.173 4.141s-13.798-1.409-20.173-4.141l-358.4-153.6c-9.236-3.935-17.111-10.498-22.647-18.873s-8.487-18.192-8.487-28.231c0-10.039 2.951-19.858 8.487-28.232s13.411-14.938 22.647-18.874l135.373-57.907c5.025 5.686 11.251 10.179 18.227 13.158l204.8 87.758c6.198 2.762 12.883 4.265 19.664 4.421 6.784 0.156 13.533-1.038 19.85-3.512s12.080-6.179 16.954-10.901c4.874-4.72 8.762-10.362 11.434-16.598 2.675-6.237 4.080-12.941 4.141-19.728 0.061-6.784-1.229-13.514-3.795-19.795-2.563-6.282-6.349-11.99-11.139-16.797s-10.486-8.611-16.762-11.197l-139.622-59.904 99.328-42.547c6.368-2.723 13.222-4.128 20.147-4.128s13.779 1.405 20.147 4.128l358.4 153.6c9.206 3.952 17.050 10.512 22.563 18.877s8.451 18.161 8.451 28.178c0 10.017-2.938 19.814-8.451 28.177s-13.357 14.926-22.563 18.876l-358.4 153.651zM169.476 478.867l86.528-37.018v-210.022c-17.728 4.032-35.679 7.008-53.76 8.909-11.666 1.229-22.558 6.422-30.852 14.717s-13.49 19.187-14.716 30.851c-6.733 64.467-2.404 129.61 12.8 192.614v-0.051zM476.163 111.456c-34.611 33.962-74.349 62.262-117.76 83.866v202.598l93.082-39.936c19.123-8.195 39.712-12.422 60.518-12.422s41.395 4.227 60.518 12.422l282.010 120.883c15.293-62.992 19.626-128.15 12.8-192.614-1.226-11.664-6.419-22.557-14.717-30.851-8.294-8.294-19.184-13.488-30.851-14.717-103.293-10.854-199.856-56.41-273.92-129.229-9.571-9.379-22.438-14.634-35.84-14.634s-26.269 5.254-35.84 14.634zM307.204 38.394c13.58 0 26.601 5.395 36.204 14.998 9.6 9.6 14.995 22.624 14.995 36.202v105.728c-32.563 16.179-66.939 28.416-102.4 36.454v-142.182c0-13.578 5.394-26.602 14.996-36.202 9.602-9.603 22.625-14.998 36.204-14.998z" />
</font>
</defs>
</svg>
